<?xml version="1.0" standalone="no"?>
<!DOCTYPE svg PUBLIC "-//W3C//DTD SVG 20010904//EN"
 "http://www.w3.org/TR/2001/REC-SVG-20010904/DTD/svg10.dtd">
<svg version="1.0" xmlns="http://www.w3.org/2000/svg"
 width="736.000000pt" height="1308.000000pt" viewBox="0 0 736.000000 1308.000000"
 preserveAspectRatio="xMidYMid meet">

<g transform="translate(0.000000,1308.000000) scale(0.100000,-0.100000)"
fill="#000000" stroke="none">
<path d="M3888 12816 c-38 -53 -90 -149 -113 -211 -29 -75 -33 -158 -11 -210
15 -35 15 -35 -12 -35 -15 0 -54 10 -88 22 -59 21 -63 21 -126 5 -36 -8 -112
-37 -169 -63 -90 -41 -111 -47 -173 -48 -63 -1 -78 3 -127 31 -82 48 -144 107
-164 155 -17 42 -17 43 -27 18 -5 -14 -8 -65 -6 -115 3 -72 10 -102 31 -150
16 -33 35 -67 43 -76 14 -16 12 -18 -25 -24 -62 -10 -120 -54 -201 -153 -41
-50 -79 -91 -85 -91 -5 0 -77 40 -160 88 -147 87 -162 101 -186 166 -6 17 -13
25 -15 19 -10 -26 116 -352 162 -420 13 -19 24 -36 24 -38 0 -2 -29 -15 -65
-31 -44 -18 -75 -39 -94 -64 -38 -48 -123 -196 -144 -249 -23 -58 -21 -76 4
-29 11 20 39 49 62 64 39 25 226 103 247 103 5 0 -9 -20 -33 -44 -23 -25 -63
-87 -90 -138 -66 -129 -75 -138 -155 -155 -183 -39 -357 -6 -425 82 -16 20
-31 34 -34 32 -8 -9 191 -291 251 -355 67 -71 115 -102 199 -128 l58 -18 -56
-56 c-45 -45 -60 -71 -86 -140 -30 -83 -70 -251 -68 -293 0 -13 9 0 21 32 28
74 78 120 167 154 l72 28 93 -27 93 -27 -34 -76 c-19 -42 -39 -86 -45 -98 -19
-39 -184 -103 -266 -103 -19 0 -51 10 -71 22 l-36 21 28 -30 c40 -43 104 -75
285 -146 110 -43 171 -61 205 -61 45 -1 58 -8 38 -21 -5 -3 -23 -41 -40 -85
-24 -61 -31 -95 -31 -150 0 -40 4 -70 10 -70 6 0 10 11 10 25 0 34 21 73 57
107 23 22 44 30 103 38 41 6 84 13 95 16 11 3 27 8 37 10 12 4 7 -13 -21 -69
-55 -107 -69 -125 -118 -154 -37 -22 -52 -25 -94 -20 -27 3 -49 4 -49 1 0 -18
121 -57 207 -67 l98 -11 -53 -10 c-47 -8 -59 -15 -98 -60 l-44 -52 -98 9
c-156 14 -348 -15 -454 -69 -27 -14 -89 -62 -138 -107 -48 -45 -126 -104 -172
-131 -355 -208 -428 -278 -415 -400 5 -54 33 -140 83 -256 24 -56 28 -77 26
-148 -2 -82 -3 -86 -58 -178 -31 -52 -89 -164 -130 -248 l-74 -153 -44 -6
c-43 -6 -212 -69 -285 -107 -21 -10 -64 -46 -97 -80 -32 -34 -113 -98 -179
-142 -201 -136 -283 -201 -305 -241 -46 -82 -128 -354 -165 -547 -21 -111 -31
-134 -81 -196 -23 -28 -47 -60 -53 -72 -8 -14 -11 -151 -11 -449 l0 -429 31
-99 c29 -94 31 -104 20 -161 -15 -85 -13 -168 6 -239 20 -72 21 -176 5 -554
-14 -322 -4 -552 30 -701 18 -78 21 -120 19 -236 -4 -173 1 -185 133 -326 60
-65 92 -106 93 -123 1 -14 9 -61 17 -103 9 -42 27 -147 41 -232 55 -337 108
-606 123 -635 25 -44 126 -90 242 -111 52 -9 138 -30 190 -46 52 -16 227 -63
389 -104 162 -40 295 -75 297 -77 3 -3 -1 -24 -47 -212 -45 -187 -60 -239 -68
-228 -8 13 -77 53 -132 79 -26 12 -49 27 -53 32 -12 19 -105 45 -120 33 -9 -8
-15 -60 -19 -188 -11 -308 -36 -836 -43 -883 -3 -25 -15 -64 -27 -88 -17 -34
-18 -45 -8 -51 8 -6 15 -39 18 -95 l6 -86 2458 0 c1906 0 2459 3 2459 12 0 9
3 9 12 0 7 -7 24 -12 39 -12 31 0 43 29 40 92 -2 37 16 58 52 58 31 0 69 -55
71 -105 1 -5 13 -18 29 -27 25 -17 69 -18 542 -18 l515 0 0 24 c0 24 -3 25
-64 24 -44 -1 -73 4 -89 15 -23 15 -24 19 -14 55 9 32 7 46 -7 77 -22 45 -11
80 28 87 19 4 35 -3 62 -28 20 -19 47 -34 60 -34 l24 0 0 834 0 835 -26 -5
c-35 -6 -74 20 -74 51 0 13 9 40 20 59 18 33 18 39 4 93 -21 83 -44 96 -125
71 -37 -11 -42 -9 -77 19 -28 23 -39 41 -47 78 -12 53 -25 64 -48 40 -9 -8
-18 -15 -21 -15 -6 0 -8 -2 -103 -80 l-63 -51 0 -70 c0 -61 -3 -73 -25 -94
-40 -41 -127 -30 -187 22 -25 22 -33 94 -15 129 8 16 17 49 20 74 6 47 31 75
57 64 8 -3 42 -8 75 -11 74 -5 111 14 140 75 18 38 26 43 95 67 41 14 100 33
130 41 57 15 89 44 90 80 0 11 6 29 14 39 13 19 15 18 35 -17 12 -20 40 -48
62 -63 32 -21 40 -31 35 -48 -19 -77 -19 -110 -1 -124 11 -7 22 -13 27 -13 4
0 8 81 8 180 l0 180 -24 6 c-14 3 -37 -1 -54 -10 -57 -30 -99 -16 -167 53 -34
36 -39 46 -36 80 3 45 -17 64 -84 82 -45 12 -55 23 -55 59 1 36 22 59 61 67
34 6 52 21 43 34 -2 5 -26 11 -52 14 -94 13 -105 29 -51 81 17 16 37 41 45 56
8 15 34 41 59 58 42 29 50 31 103 25 67 -9 148 -40 157 -62 3 -9 -6 -33 -20
-54 -30 -46 -31 -63 -5 -96 18 -23 18 -27 5 -54 -8 -15 -15 -39 -15 -54 0 -20
5 -25 24 -25 13 0 29 -7 36 -15 7 -8 16 -15 21 -15 5 0 9 192 9 435 l0 435
-33 0 c-21 0 -48 11 -74 30 -22 16 -43 27 -47 23 -3 -3 -6 1 -6 10 0 10 3 16
8 15 4 -2 40 13 80 32 l72 34 0 43 c0 42 -1 43 -33 43 -17 0 -61 -8 -97 -19
-104 -29 -148 -2 -175 110 -21 84 -16 93 59 109 30 6 61 17 71 24 17 12 15 16
-20 55 l-38 42 5 72 c3 40 2 81 -3 92 -4 11 -8 16 -9 10 0 -5 -7 1 -14 15 -8
14 -12 28 -10 32 2 3 -10 17 -28 29 -33 23 -45 35 -51 53 -2 5 -13 4 -25 -3
-22 -12 -22 -11 -16 31 4 24 3 40 -1 36 -5 -4 -9 -31 -10 -60 -2 -29 -3 -63
-4 -74 -1 -20 -58 -67 -106 -88 -11 -4 -66 -9 -122 -10 -79 -1 -106 -5 -119
-17 -21 -22 -4 -50 48 -79 31 -17 57 -22 126 -23 105 -1 115 3 96 41 -27 54
-23 65 44 121 42 35 70 51 85 49 32 -4 33 -34 3 -79 -19 -28 -22 -39 -12 -39
16 0 29 -27 20 -41 -3 -5 -2 -8 3 -7 4 2 19 -8 32 -21 19 -19 25 -21 32 -10
18 29 8 -2 -12 -35 -20 -34 -62 -57 -77 -42 -3 4 -1 20 5 36 9 24 9 30 -2 30
-18 0 -70 -68 -79 -103 -8 -33 -77 -103 -122 -122 -20 -9 -33 -23 -36 -40 -3
-14 -2 -25 1 -25 3 0 11 -10 16 -22 19 -43 40 -28 40 27 0 59 8 75 38 75 36 0
54 -44 56 -135 1 -44 3 -89 5 -100 3 -11 5 -26 5 -34 1 -9 5 -10 14 -4 16 13
136 53 158 53 18 0 49 -25 49 -40 0 -16 -111 -70 -155 -77 -36 -4 -46 -2 -51
11 -8 21 -24 21 -24 0 0 -37 -25 -97 -47 -111 -21 -14 -26 -14 -50 3 -38 24
-49 36 -57 62 -9 27 -53 62 -78 62 -22 0 -78 -27 -78 -38 0 -4 25 -20 55 -35
54 -26 75 -52 89 -109 7 -29 -6 -41 -77 -77 -29 -14 -32 -20 -32 -61 0 -37 4
-46 26 -59 24 -13 33 -13 80 2 30 9 70 20 89 24 28 7 40 18 60 55 14 25 34 55
44 67 27 30 97 37 161 17 64 -20 82 -20 119 -1 40 21 65 19 87 -8 22 -27 24
-56 4 -63 -8 -3 -17 -14 -20 -23 -3 -9 -27 -30 -55 -46 -39 -24 -50 -36 -50
-56 0 -40 -70 -89 -126 -89 -25 0 -26 2 -21 34 l6 35 -51 -38 c-31 -24 -70
-43 -105 -50 -46 -11 -58 -18 -75 -47 -34 -57 -59 -65 -214 -62 -103 2 -138 0
-142 -10 -2 -6 -8 -12 -14 -12 -6 0 -16 -8 -23 -17 -11 -15 -15 -16 -30 -3
-16 14 -17 13 -11 -8 5 -13 3 -22 -3 -22 -6 0 -11 10 -12 23 l0 22 -9 -22
c-13 -32 -27 -29 -35 7 -4 16 -34 71 -67 121 -68 104 -66 77 -19 254 42 156 3
228 -175 325 -43 23 -85 50 -91 58 -22 27 -14 57 23 93 53 51 58 64 33 88
l-22 20 26 93 c32 117 39 188 27 263 -14 84 -48 147 -134 247 -49 57 -77 99
-81 121 -4 19 0 72 9 118 52 284 80 561 74 711 -5 101 -10 128 -47 233 -100
285 -263 785 -314 960 -57 193 -139 424 -196 549 -47 102 -93 168 -180 259
-43 45 -85 96 -94 113 -19 38 -177 187 -229 217 l-37 22 3 85 c4 98 -3 121
-66 212 -23 35 -50 87 -59 116 -24 75 -60 118 -104 125 -58 9 -104 45 -149
116 -75 116 -151 169 -301 209 -64 16 -70 20 -68 43 1 13 26 71 55 129 l53
105 89 43 90 43 77 -25 c95 -32 127 -34 82 -6 -60 36 -69 81 -20 106 17 9 63
37 100 61 37 25 69 44 71 42 2 -2 13 -33 25 -68 23 -72 22 -76 -41 -86 -21 -4
-38 -10 -38 -14 0 -5 49 -138 108 -297 60 -159 126 -338 148 -397 45 -123 26
-115 172 -71 47 14 82 30 82 37 0 27 -182 518 -209 565 -20 33 -11 1 24 -90
20 -50 34 -92 32 -94 -1 -2 -30 35 -65 82 -34 46 -59 84 -56 84 3 0 19 -9 35
-21 16 -11 29 -18 29 -15 0 2 -20 19 -45 37 -50 36 -49 53 1 47 27 -3 33 -1
29 10 -3 7 -5 17 -5 20 0 4 -4 1 -9 -7 -14 -21 -58 -5 -75 28 -9 16 -22 31
-31 34 -8 4 -15 11 -15 17 0 6 5 8 10 5 6 -4 22 0 35 9 13 9 27 16 30 16 10 0
5 -31 -11 -58 l-16 -27 21 23 21 24 10 -27 c6 -15 13 -25 16 -23 3 3 -2 21
-10 39 -7 19 -19 47 -25 62 -11 27 -14 29 -63 25 l-52 -3 -23 77 -24 76 70 71
69 70 62 -20 c34 -10 76 -19 93 -18 31 1 31 1 -14 20 -50 22 -79 61 -79 108 0
44 57 210 66 188 8 -23 119 -105 174 -130 34 -15 65 -20 134 -19 49 0 93 5 99
11 8 8 0 11 -28 11 -62 0 -70 10 -56 63 6 25 11 63 10 84 0 32 -29 155 -53
228 -7 19 -3 20 56 20 48 0 84 8 148 33 73 29 230 116 230 127 0 2 -13 -1 -30
-6 -44 -16 -125 5 -197 51 -58 36 -63 43 -79 96 -19 65 -20 96 -9 217 6 61 11
85 19 77 27 -27 87 -3 206 83 58 42 180 156 180 169 0 4 -26 -5 -57 -20 -59
-27 -139 -35 -195 -19 -23 6 -27 14 -33 59 -10 82 -26 128 -52 148 -13 10 -23
21 -23 24 0 4 18 33 40 64 22 31 43 71 46 88 5 28 0 36 -76 106 -80 73 -81 75
-87 132 -6 58 -23 81 -92 126 l-24 16 18 117 c20 132 16 217 -12 274 -28 59
-57 68 -216 68 l-138 0 -31 53 c-39 67 -60 81 -151 95 -69 11 -77 15 -119 59
-84 86 -140 97 -281 58 -83 -23 -166 -21 -217 5 -39 20 -159 149 -175 189 -23
54 -20 161 6 202 23 39 13 46 -13 10z m397 -1071 c82 17 106 14 59 -7 -26 -12
-17 -13 89 -16 67 -1 117 -7 117 -12 0 -6 9 -10 20 -10 12 0 51 -8 88 -17 56
-14 63 -18 39 -23 -26 -5 -24 -7 30 -33 32 -16 83 -45 113 -65 55 -37 55 -38
51 -82 -3 -51 -15 -70 -42 -70 -14 0 -19 8 -20 28 0 24 -2 22 -20 -18 -11 -25
-27 -53 -36 -62 -9 -10 -11 -18 -5 -18 6 0 14 5 17 10 3 6 19 10 35 10 34 0
64 -34 82 -92 10 -33 9 -45 -3 -67 -21 -37 -45 -37 -78 -2 -27 28 -29 29 -34
11 -8 -30 -26 -24 -42 13 l-14 32 -1 -31 c0 -18 -13 -57 -29 -87 -28 -54 -28
-55 -9 -60 18 -5 20 -11 14 -44 -4 -21 -21 -60 -37 -87 l-30 -49 52 47 c74 67
119 74 119 18 0 -24 2 -24 27 15 44 68 133 105 163 68 10 -13 10 -19 -5 -35
-18 -19 -17 -20 8 -20 33 0 61 -39 61 -85 0 -29 2 -32 21 -25 26 10 75 -15 75
-39 0 -10 6 -31 14 -47 26 -54 29 -156 6 -243 -25 -98 -76 -233 -141 -374 -33
-72 -65 -164 -94 -278 -58 -223 -123 -347 -227 -432 -100 -82 -413 -253 -535
-292 -32 -11 -66 -15 -85 -11 -43 8 -233 100 -356 172 -292 172 -455 310 -542
459 -58 100 -100 117 -160 65 -33 -29 -67 -46 -75 -38 -11 11 -13 67 -3 91 9
23 8 31 -4 43 -8 8 -22 12 -31 8 -20 -7 -23 -50 -3 -61 7 -4 16 -26 19 -49 7
-40 6 -41 -18 -36 -49 9 -277 216 -306 277 -53 114 5 356 101 425 52 37 88 36
145 -2 43 -28 51 -39 55 -73 6 -43 58 -162 87 -199 10 -12 36 -38 58 -57 l39
-34 -26 35 c-26 35 -41 79 -52 159 l-7 44 28 -18 c15 -10 55 -39 88 -65 78
-62 125 -86 73 -39 -20 19 -48 56 -62 82 -14 26 -33 59 -42 72 -20 30 -18 30
43 4 90 -38 297 -37 433 4 l45 13 -60 0 c-107 1 -211 68 -240 153 -63 191 -59
437 9 584 13 29 38 83 55 121 24 53 48 86 103 138 42 40 77 67 85 63 8 -2 11
0 8 5 -8 13 83 70 112 70 13 0 22 5 21 13 -2 6 3 11 10 9 7 -1 26 5 43 14 27
13 29 17 17 32 -7 9 -17 20 -21 23 -13 9 50 29 91 29 43 0 37 -11 -7 -12 -17
-1 -31 -5 -31 -10 0 -5 5 -6 10 -3 6 3 10 2 10 -4 0 -5 -10 -11 -22 -13 -13
-2 -18 -6 -13 -10 6 -3 33 5 61 18 29 13 76 33 105 43 l54 20 -64 0 c-35 1
-62 3 -59 7 3 3 55 5 114 5 85 1 104 3 87 11 -13 6 -23 14 -23 19 0 4 29 -4
64 -17 64 -25 65 -25 141 -9z m-505 -105 c0 -5 -12 -10 -27 -9 -25 0 -26 1 -8
9 27 12 35 12 35 0z m-60 -15 c0 -2 -10 -9 -22 -15 -22 -11 -22 -10 -4 4 21
17 26 19 26 11z m1383 -380 c20 -42 37 -78 37 -80 0 -3 -14 -5 -30 -5 -36 0
-80 41 -80 75 0 27 20 85 29 85 4 0 23 -34 44 -75z m62 -159 c15 -50 12 -55
-17 -29 -18 16 -25 63 -11 76 9 10 13 4 28 -47z m70 -1222 c34 -57 44 -97 26
-109 -5 -3 -19 8 -30 24 -20 28 -91 187 -91 204 0 14 59 -60 95 -119z m-2085
-322 c7 -34 10 -65 7 -68 -3 -3 -24 0 -46 7 -47 14 -52 39 -11 50 24 7 24 7 3
8 -13 1 -32 10 -43 21 -11 11 -22 15 -25 10 -9 -15 -25 -12 -25 4 0 9 17 16
50 20 27 4 52 11 56 17 10 18 20 -2 34 -69z m-166 32 c6 -16 -10 -19 -19 -4
-3 6 -16 10 -28 9 l-22 0 23 -9 c26 -11 25 -8 12 -47 -11 -31 -64 -78 -79 -69
-5 3 -11 19 -13 36 -5 32 -6 31 62 44 14 3 4 3 -22 2 -34 -3 -48 0 -48 9 0 8
-2 19 -5 27 -4 10 11 13 64 15 52 1 71 -2 75 -13z m-148 -120 c-5 -17 0 -34
13 -52 25 -36 31 -68 11 -63 -8 2 -53 12 -99 24 l-83 21 50 48 c39 37 58 48
82 48 29 0 32 -2 26 -26z m124 13 c0 -7 -6 -19 -12 -27 -11 -12 -10 -12 5 -1
22 17 22 16 -5 -126 -22 -118 -30 -125 -43 -38 -5 28 -9 55 -11 62 -1 6 9 29
23 50 l24 38 -25 -30 c-28 -32 -30 -32 -40 7 -5 22 0 31 26 52 36 28 58 33 58
13z m210 -24 c4 -4 14 -42 24 -83 9 -41 20 -83 23 -94 3 -11 1 -16 -5 -12 -14
9 -142 202 -142 215 0 11 88 -12 100 -26z m-24 -124 c83 -128 85 -134 113
-255 l28 -124 -31 -4 c-17 -3 -74 -9 -126 -15 -52 -6 -104 -12 -115 -13 -17
-3 -23 8 -40 74 l-19 77 28 30 c60 62 139 77 211 41 40 -19 40 -19 16 0 -13
11 -41 23 -63 26 -49 8 -59 27 -88 162 -20 92 -21 132 -5 132 3 0 44 -59 91
-131z m-111 68 c27 -164 32 -237 15 -237 -6 0 -30 -18 -55 -41 l-44 -40 -7 36
c-9 51 16 248 41 323 8 23 44 -6 50 -41z m616 -24 c13 -17 13 -17 -6 -3 -11 8
-22 16 -24 17 -2 2 0 3 6 3 6 0 17 -8 24 -17z m50 -50 c13 -16 12 -17 -3 -4
-10 7 -18 15 -18 17 0 8 8 3 21 -13z m-413 -75 c33 -46 56 -84 52 -86 -5 -2
-29 6 -54 16 -39 18 -46 25 -51 59 -4 21 -10 50 -15 66 -15 47 6 30 68 -55z
m483 5 c13 -16 12 -17 -3 -4 -10 7 -18 15 -18 17 0 8 8 3 21 -13z m40 -40 c13
-16 12 -17 -3 -4 -10 7 -18 15 -18 17 0 8 8 3 21 -13z m927 1 c13 -4 17 -44 5
-44 -18 2 -77 36 -81 47 -3 12 33 11 76 -3z m-838 -97 c-3 -2 -20 15 -39 37
l-35 41 39 -37 c22 -21 37 -39 35 -41z m839 36 c17 -15 15 -18 -21 -27 -23 -5
-27 -2 -37 26 -6 17 -11 32 -11 34 0 6 55 -20 69 -33z m-1350 3 c10 -12 8 -13
-8 -9 -12 3 -18 9 -15 14 7 12 10 11 23 -5z m1350 -45 c10 -6 11 -13 2 -29
-18 -34 -12 -40 7 -7 l17 30 3 -37 c2 -21 7 -38 11 -38 4 0 6 14 3 30 -5 38
11 39 28 3 19 -42 90 -253 90 -269 0 -8 -13 -32 -29 -54 l-29 -41 -11 53 c-5
29 -18 103 -28 163 -9 61 -19 102 -21 92 -2 -10 1 -48 8 -84 6 -36 9 -67 7
-69 -2 -2 -18 35 -36 84 -18 48 -39 102 -48 120 -21 47 -8 74 26 53z m-800
-35 c-3 -3 -11 5 -18 17 -13 21 -12 21 5 5 10 -10 16 -20 13 -22z m181 24 c0
-5 -8 -10 -17 -10 -15 0 -16 2 -3 10 19 12 20 12 20 0z m-767 -52 c59 -40 75
-64 35 -53 -19 5 -18 3 5 -10 30 -17 36 -54 15 -100 -15 -32 -30 -32 -69 3
-24 22 -35 43 -45 93 -8 35 -17 77 -21 93 -7 33 -10 34 80 -26z m1567 -78 c92
-130 113 -168 158 -293 40 -108 40 -108 19 -116 -38 -15 -179 -53 -181 -49 -1
2 -16 42 -33 89 -33 91 -32 100 10 147 15 16 32 22 66 23 l46 1 -32 11 c-18 7
-37 17 -43 23 -10 10 -110 261 -110 277 0 19 34 -20 100 -113z m-935 90 c13
-6 15 -9 5 -9 -8 0 -22 4 -30 9 -18 12 -2 12 25 0z m-331 -22 c-3 -4 -11 -5
-19 -1 -21 7 -19 12 4 10 11 0 18 -5 15 -9z m421 -58 c-8 -25 -25 -85 -38
-135 l-24 -90 57 -26 c43 -20 60 -34 70 -59 7 -18 31 -55 53 -83 31 -39 36
-51 26 -58 -25 -16 -36 -10 -53 29 -18 40 -62 91 -214 246 -53 54 -82 88 -64
75 17 -12 32 -27 32 -31 0 -5 4 -7 8 -4 11 6 54 -23 48 -32 -2 -4 5 -16 15
-26 19 -19 19 -19 19 1 0 11 7 40 16 64 9 24 18 58 20 74 4 30 34 108 40 102
2 -1 -3 -23 -11 -47z m-350 12 c-3 -3 -11 0 -18 7 -9 10 -8 11 6 5 10 -3 15
-9 12 -12z m55 -27 c14 -8 21 -14 15 -14 -5 0 -21 6 -35 14 -14 8 -20 14 -15
14 6 0 21 -6 35 -14z m54 -40 c11 -8 18 -17 15 -19 -2 -2 -15 4 -28 15 -27 22
-15 26 13 4z m-1329 -130 c71 -35 110 -68 102 -88 -9 -23 -39 -21 -87 3 -25
13 -59 20 -95 20 -42 0 -60 5 -75 20 -29 29 -26 58 8 66 15 3 32 7 37 9 17 6
58 -5 110 -30z m-581 -147 c36 -52 0 -106 -76 -114 -23 -3 -60 -10 -81 -16
-20 -6 -40 -9 -43 -5 -18 18 129 157 166 157 11 0 26 -10 34 -22z m1597 -627
c16 -16 44 -32 61 -36 18 -4 41 -9 51 -11 23 -7 57 -75 57 -115 0 -22 9 -40
32 -61 32 -30 34 -30 115 -25 95 6 85 18 103 -118 6 -44 29 -182 51 -306 21
-125 39 -240 39 -256 0 -38 -16 -53 -58 -53 -20 0 -46 -10 -66 -25 -60 -46
-97 -32 -158 58 -98 146 -216 248 -268 232 -18 -6 -20 -2 -20 45 0 28 -5 60
-11 71 -19 37 -65 479 -49 479 4 0 10 23 14 51 5 34 15 59 31 75 31 31 40 30
76 -5z m-1502 -60 c10 -10 26 -44 35 -74 17 -58 37 -87 62 -87 8 0 23 -9 34
-20 23 -23 19 -61 -8 -92 -18 -22 -77 -23 -112 -3 -40 23 -66 18 -91 -16 -28
-40 -91 -68 -151 -69 -80 0 -98 17 -53 52 13 10 30 37 36 58 14 47 27 60 99
99 59 31 63 40 39 98 -12 28 -11 34 6 52 23 27 78 28 104 2z m2090 -290 c47
-47 102 -159 126 -256 14 -57 16 -78 6 -111 -15 -55 -48 -96 -74 -92 -28 4
-33 18 -51 133 -9 55 -27 160 -40 233 -13 72 -19 132 -15 132 5 0 27 -18 48
-39z m-2052 -236 c54 -19 90 -25 138 -23 63 2 65 1 103 -37 22 -22 47 -46 56
-53 35 -28 16 -55 -58 -84 -83 -34 -96 -44 -96 -74 0 -37 -21 -72 -51 -84 -34
-15 -54 -5 -82 42 -12 20 -40 61 -61 92 -35 51 -42 56 -67 51 -24 -6 -30 -1
-57 49 l-30 55 49 46 c26 25 56 45 65 45 10 0 51 -11 91 -25z m3046 -370 c33
-117 106 -431 123 -527 6 -35 4 -38 -16 -38 -12 0 -35 9 -50 20 -27 19 -60 18
-60 -2 0 -5 -15 -15 -34 -23 -37 -16 -51 -42 -41 -75 16 -50 -30 -119 -69
-104 -20 8 -42 67 -67 177 -11 50 -27 99 -35 108 -9 10 -42 27 -75 40 l-60 22
-21 -20 -20 -21 21 -47 c26 -58 26 -76 2 -106 l-18 -23 -16 30 c-18 35 -55 70
-63 61 -4 -4 0 -44 9 -89 34 -180 31 -218 -20 -258 -58 -45 -96 -17 -125 92
-26 101 -69 169 -164 263 -45 44 -87 91 -94 104 -15 29 -5 163 16 202 23 46
75 51 169 19 32 -11 74 -20 93 -20 59 0 151 -30 200 -64 91 -65 164 -98 204
-93 28 4 44 0 63 -15 l25 -19 10 26 c5 14 10 41 10 58 0 18 4 47 10 66 8 29 5
42 -25 99 -38 71 -44 116 -20 162 14 28 26 34 80 42 20 4 22 18 9 78 -3 16 -2
21 4 15 5 -5 26 -68 45 -140z m-3349 -231 c10 -14 37 -34 60 -44 l43 -18 50
-179 c51 -181 53 -203 14 -203 -10 0 -28 11 -41 25 -30 32 -98 35 -140 5 -25
-18 -133 -162 -187 -250 -12 -19 -33 -77 -47 -128 -47 -165 -95 -249 -225
-393 -80 -87 -109 -99 -149 -56 -49 53 -45 123 14 208 24 34 26 43 15 65 -10
22 -16 25 -44 21 -52 -8 -64 5 -77 83 -9 52 -9 83 -1 118 6 26 15 82 20 125 9
78 23 113 87 222 27 46 29 58 29 149 0 95 1 99 26 118 18 14 51 22 105 27 71
6 85 11 140 49 34 23 71 42 83 42 11 0 38 6 58 14 90 34 145 34 167 0z m645
-50 c28 -20 61 -88 61 -129 0 -52 -19 -100 -57 -144 -65 -77 -113 -74 -113 7
0 26 -7 79 -15 119 -18 85 -10 114 37 143 40 24 57 25 87 4z m303 -426 c77
-154 107 -227 97 -234 -18 -10 -53 5 -72 32 -41 56 -147 238 -147 251 0 11 49
41 71 43 3 0 26 -42 51 -92z m-1684 -505 c24 -74 27 -105 12 -132 -12 -23 -68
-47 -80 -35 -8 9 30 234 40 234 4 0 16 -30 28 -67z m2142 -145 c11 -18 19 -42
18 -53 -4 -24 -36 -31 -61 -12 -17 11 -17 18 -8 55 7 23 16 42 22 42 5 0 18
-15 29 -32z m69 -233 c43 -49 43 -100 0 -141 -17 -16 -39 -46 -50 -66 -10 -20
-29 -44 -41 -52 -27 -19 -91 -21 -106 -3 -18 22 -18 138 1 173 17 33 129 124
152 124 7 0 27 -16 44 -35z m2316 -246 c24 -101 56 -224 71 -274 58 -196 134
-521 134 -575 0 -30 -7 -80 -15 -110 -8 -30 -15 -77 -15 -105 l-1 -50 -33 39
c-35 41 -90 127 -102 161 -7 18 -6 18 9 6 10 -8 17 -9 17 -3 0 6 -4 13 -9 16
-5 3 -12 49 -16 101 -9 124 -24 137 -145 119 -53 -7 -145 16 -169 43 -9 10
-32 38 -50 62 l-35 43 -60 -7 c-83 -10 -134 -7 -172 11 -48 23 -59 41 -61 98
-1 28 -4 94 -6 146 -6 133 -5 136 56 155 53 17 97 54 97 81 0 26 38 90 62 106
51 33 97 29 263 -23 83 -25 88 -22 113 78 9 39 18 70 20 68 2 -1 23 -85 47
-186z m-900 52 c66 -38 146 -111 170 -154 l19 -36 -34 -67 c-36 -69 -38 -93
-19 -168 14 -54 13 -119 -2 -144 -16 -26 -51 -42 -90 -42 -16 0 -50 -10 -74
-23 l-44 -24 27 -11 c25 -10 24 -10 -13 -6 -22 3 -48 8 -57 10 -16 5 -15 0 4
-47 18 -42 29 -54 62 -69 70 -30 104 -66 122 -128 9 -32 31 -77 50 -101 39
-51 40 -58 18 -90 -14 -19 -23 -22 -55 -18 -52 7 -144 50 -195 93 -45 36 -105
66 -125 62 -15 -4 -121 174 -140 233 -11 36 -21 47 -54 62 -42 20 -85 55 -85
69 0 5 -13 21 -30 36 -41 37 -127 185 -146 249 -18 61 -7 123 29 161 20 22 26
22 122 16 141 -9 179 -34 213 -134 22 -65 57 -95 112 -95 68 0 75 16 93 205
13 132 20 167 34 177 24 18 31 17 88 -16z m1120 -118 c33 -66 45 -102 43 -125
-3 -30 -6 -33 -41 -36 -47 -4 -73 22 -103 105 -11 32 -26 57 -32 56 -16 -4
-15 7 7 58 10 24 21 53 25 63 6 19 8 19 30 -5 13 -13 45 -65 71 -116z m-3434
-506 c24 -14 64 -33 89 -43 25 -10 71 -39 103 -66 l59 -48 -27 -10 c-14 -5
-32 -10 -38 -10 -34 0 -137 -61 -168 -100 -19 -24 -48 -59 -66 -77 -18 -19
-55 -63 -83 -97 -47 -60 -111 -116 -242 -214 -32 -23 -94 -76 -138 -117 -74
-70 -100 -83 -100 -52 0 7 -12 29 -26 50 l-26 38 35 72 c22 47 60 100 108 153
41 44 99 110 129 146 30 36 65 71 78 77 52 25 5 45 -83 35 l-55 -7 0 31 c0 21
11 43 32 68 21 23 34 51 37 78 6 39 10 43 81 83 75 42 75 42 166 39 76 -3 98
-7 135 -29z m4676 -73 c3 -18 2 -18 -6 1 -9 19 -10 19 -10 -2 -1 -13 -5 -23
-10 -23 -4 0 -6 11 -3 25 5 29 26 28 29 -1z m-3505 -54 c18 -13 50 -39 70 -58
l37 -35 -19 -28 c-29 -40 -25 -54 28 -92 71 -53 95 -82 87 -106 -24 -78 -210
-271 -259 -271 -12 0 -39 12 -60 26 -21 15 -66 39 -100 54 -68 32 -243 172
-265 212 -18 35 -10 62 36 122 41 52 208 180 258 196 51 16 149 5 187 -20z
m2406 -196 c67 -50 78 -77 42 -109 -25 -22 -79 -14 -107 18 -30 33 -47 91 -33
117 16 29 29 26 98 -26z m-2085 1 c40 -16 77 -58 77 -87 0 -11 -4 -17 -9 -14
-5 3 -11 -17 -13 -44 -6 -58 -30 -100 -59 -100 -12 0 -42 12 -69 27 l-47 27
18 40 c10 23 25 69 35 104 9 34 20 62 24 62 4 0 23 -7 43 -15z m169 -169 c29
-19 65 -50 80 -69 15 -20 39 -37 56 -40 17 -4 75 -46 141 -104 62 -54 133
-115 159 -135 26 -20 48 -42 50 -48 5 -14 -65 -42 -86 -35 -9 3 -37 23 -61 45
-36 32 -52 40 -83 40 -33 0 -46 7 -85 45 -25 25 -54 45 -64 45 -27 0 -24 -15
6 -28 32 -15 31 -23 -4 -43 -15 -9 -39 -36 -52 -60 -27 -48 -82 -90 -148 -113
-43 -16 -45 -15 -98 15 -51 29 -60 31 -128 27 l-73 -5 61 74 c33 40 63 73 66
74 3 0 18 3 34 5 28 5 37 -9 14 -23 -8 -4 -38 -30 -68 -57 -69 -63 -36 -40 56
39 38 33 79 67 91 75 11 8 26 25 33 38 17 31 41 163 41 223 0 27 2 49 5 49 2
0 28 -15 57 -34z m-1186 -91 c19 -19 23 -31 18 -52 -11 -44 -109 -168 -145
-183 -30 -13 -33 -12 -50 11 -11 13 -23 29 -29 36 -7 8 8 21 53 47 65 36 136
86 124 86 -10 0 -113 -52 -176 -89 -62 -37 -105 -39 -161 -10 -51 27 -101 22
-159 -16 -44 -30 -125 -44 -151 -26 -8 5 -12 12 -10 14 10 8 345 165 366 171
11 3 29 0 40 -9 31 -24 93 -18 159 15 73 36 89 37 121 5z m774 -373 c0 -8 -92
-43 -98 -37 -5 5 70 44 86 45 6 0 12 -3 12 -8z m1940 -72 c11 -6 34 -32 52
-58 18 -26 45 -57 59 -70 30 -25 65 -113 55 -139 -5 -12 -15 -14 -47 -9 -34 5
-45 3 -71 -19 -23 -19 -41 -25 -80 -25 -44 0 -53 4 -76 32 -15 17 -44 50 -64
73 -21 23 -38 49 -38 58 0 31 82 144 114 157 29 12 74 12 96 0z m1270 -70 c0
-5 -4 -10 -10 -10 -5 0 -10 5 -10 10 0 6 5 10 10 10 6 0 10 -4 10 -10z m-1633
-429 c82 -53 93 -70 86 -136 -7 -65 14 -111 89 -197 77 -90 81 -90 -207 -37
-244 45 -392 88 -455 132 -21 15 -19 17 77 73 54 32 123 81 153 110 113 107
161 117 257 55z m1493 -131 c8 -5 11 -12 7 -16 -4 -4 -15 0 -24 9 -18 18 -8
23 17 7z m-190 -114 c0 5 4 4 8 -1 13 -19 59 -43 103 -55 24 -7 63 -21 87 -31
42 -20 43 -20 89 1 26 11 56 28 66 37 13 12 37 17 85 17 66 0 67 0 64 -25 -3
-30 10 -43 51 -53 22 -5 28 -12 25 -29 -2 -18 -19 -27 -98 -53 -85 -27 -95
-33 -95 -55 0 -22 4 -24 57 -25 41 -1 64 -6 78 -19 51 -46 -4 -102 -71 -71
-19 9 -42 21 -51 28 -13 10 -28 8 -75 -6 -73 -23 -87 -34 -72 -53 20 -23 2
-27 -67 -14 -84 15 -105 3 -143 -83 -44 -98 -115 -147 -155 -107 -18 19 -21
32 -19 102 1 49 -2 77 -7 74 -17 -10 -11 3 30 79 43 78 49 119 25 165 -13 27
-12 32 20 92 19 35 35 72 35 83 0 15 3 16 15 6 8 -7 15 -9 15 -4z m-532 -176
c37 -23 36 -20 18 -64 -17 -41 -69 -80 -99 -73 -30 7 -177 73 -189 85 -15 15
1 52 25 62 12 5 65 9 117 9 78 1 101 -3 128 -19z m-1951 -176 c38 -16 40 -24
13 -49 -19 -17 -21 -17 -55 19 -56 59 -46 66 42 30z m-891 -63 c-11 -12 -15
-25 -11 -33 6 -10 5 -10 -5 -1 -11 10 -10 16 5 33 10 11 20 20 23 20 3 0 -3
-9 -12 -19z m-61 -51 c-3 -5 -16 -15 -28 -21 -19 -9 -19 -8 3 10 28 23 34 26
25 11z m-55 -34 c0 -2 -8 -10 -17 -17 -16 -13 -17 -12 -4 4 13 16 21 21 21 13z
m-35 -36 c3 -5 1 -10 -4 -10 -6 0 -11 5 -11 10 0 6 2 10 4 10 3 0 8 -4 11 -10z
m-70 -40 c-3 -5 -12 -10 -18 -10 -7 0 -6 4 3 10 19 12 23 12 15 0z m-35 -15
c0 -7 -57 -35 -72 -35 -7 0 5 9 27 19 48 23 45 22 45 16z m1961 -83 c-12 -4
-58 21 -91 49 -17 14 -4 10 38 -13 34 -18 58 -34 53 -36z m-1892 54 c-21 -20
-99 -75 -94 -66 7 12 85 70 93 70 3 0 3 -2 1 -4z m-179 -16 c-34 -11 -60 -11
-35 0 11 5 29 8 40 8 16 0 15 -2 -5 -8z m-59 -102 c8 -15 8 -18 0 -14 -6 4
-16 16 -22 28 -8 15 -8 18 0 14 6 -4 16 -16 22 -28z m119 29 c0 -2 -17 -19
-37 -38 l-38 -34 34 38 c33 34 41 42 41 34z m4233 -39 c24 -19 31 -62 13 -77
-12 -10 -20 -10 -43 1 -34 16 -43 56 -17 75 22 16 26 16 47 1z m-655 -24 c37
-26 29 -66 -23 -112 -37 -33 -45 -46 -45 -75 0 -29 -4 -36 -25 -41 -21 -5 -32
0 -59 29 -19 19 -48 40 -65 46 l-31 11 20 27 c12 14 34 45 49 68 16 23 31 40
34 37 3 -3 18 1 34 10 36 20 83 20 111 0z m813 -35 c15 -15 19 -28 14 -47 -8
-33 -14 -40 -40 -42 -47 -5 -64 1 -83 32 -24 37 -22 44 21 62 45 20 64 19 88
-5z m-1245 -85 c12 -15 30 -135 40 -276 l7 -86 -38 -33 c-33 -30 -37 -37 -32
-71 l5 -37 -31 13 c-89 38 -83 30 -79 109 3 68 5 74 39 101 53 44 58 68 27
129 -14 29 -34 61 -45 73 -20 21 -23 43 -13 82 6 22 10 23 58 17 28 -4 56 -13
62 -21z m-627 -10 c42 -12 55 -21 68 -50 16 -32 16 -36 0 -69 -13 -27 -30 -41
-73 -60 -66 -29 -96 -31 -134 -9 -52 31 -77 106 -47 145 16 21 87 58 113 59
11 0 44 -7 73 -16z m727 -45 c4 -7 8 -26 10 -43 3 -21 1 -27 -5 -17 -5 8 -7
20 -4 26 2 7 -3 20 -12 29 -9 9 -12 16 -6 16 5 0 13 -5 17 -11z m561 -35 c18
-14 33 -32 33 -40 0 -17 -38 -53 -56 -54 -6 0 -18 -7 -25 -17 -8 -9 -29 -22
-46 -30 -30 -12 -33 -17 -33 -58 0 -40 -3 -47 -26 -56 -20 -7 -32 -6 -50 6
-36 23 -31 59 11 85 33 20 34 23 28 65 -7 54 1 89 28 116 17 17 29 20 62 15
23 -4 56 -18 74 -32z m-560 -66 c-3 -8 -6 -5 -6 6 -1 11 2 17 5 13 3 -3 4 -12
1 -19z m-40 -20 c-3 -7 -5 -2 -5 12 0 14 2 19 5 13 2 -7 2 -19 0 -25z m591
-127 c-17 -28 -38 -27 -38 2 0 33 20 51 38 33 11 -11 12 -17 0 -35z m-561 -78
c-6 -23 -12 -41 -14 -40 -9 9 -8 75 1 95 9 21 11 22 16 6 4 -9 2 -37 -3 -61z
m392 -167 c48 -47 49 -48 87 -37 61 17 98 13 150 -16 51 -28 144 -114 144
-132 0 -20 -55 -24 -148 -13 -81 11 -98 10 -127 -4 -25 -11 -35 -24 -39 -49
-9 -45 -39 -65 -97 -65 -41 0 -52 -5 -80 -35 -40 -42 -60 -44 -94 -8 -21 24
-25 37 -25 91 0 44 -5 68 -15 79 -18 17 -74 32 -121 33 -64 0 -69 52 -10 84
19 10 61 40 92 67 62 53 79 58 172 55 60 -2 64 -4 111 -50z m-451 -401 l1 -20
-9 20 c-5 11 -8 34 -8 50 l0 30 8 -30 c4 -16 8 -39 8 -50z m1328 -30 c-2 -7 2
-16 10 -19 34 -13 -1 -42 -37 -31 -24 8 -35 50 -19 70 15 18 54 1 46 -20z
m-1138 -274 c9 -11 25 -31 35 -45 27 -39 76 -35 134 9 25 19 56 35 68 35 32 0
111 -88 125 -139 7 -27 22 -49 45 -67 46 -35 53 -59 23 -91 -63 -69 -140 -91
-188 -53 -34 27 -73 25 -125 -5 -37 -22 -51 -25 -92 -19 -34 4 -60 1 -86 -9
-20 -9 -37 -15 -37 -14 0 1 -11 79 -25 172 -14 94 -25 177 -25 185 0 15 81 57
113 59 9 1 25 -8 35 -18z m590 7 c15 -15 15 -41 1 -55 -18 -18 -39 -3 -39 26
0 40 15 52 38 29z m15 -96 c8 -9 20 -29 26 -45 7 -17 18 -27 30 -27 40 0 71
-22 71 -50 0 -32 -16 -48 -56 -55 -41 -8 -58 7 -57 49 1 35 0 36 -37 36 -69 0
-86 48 -32 90 30 24 35 25 55 2z m-97 -486 c3 -8 0 -24 -6 -36 -10 -19 -14
-20 -26 -9 -16 17 -8 59 12 59 8 0 17 -6 20 -14z"/>
<path d="M3636 11524 c-5 -14 -4 -15 9 -4 17 14 19 20 6 20 -5 0 -12 -7 -15
-16z"/>
<path d="M3603 11513 c4 -3 0 -15 -10 -25 -18 -20 -38 -25 -27 -5 4 6 3 9 -1
4 -5 -4 -9 -16 -10 -28 -2 -17 3 -15 31 12 29 28 36 49 17 49 -4 0 -3 -3 0 -7z"/>
<path d="M3469 11401 c-12 -14 -31 -37 -43 -51 -15 -18 -11 -16 14 6 19 17 41
29 48 27 6 -3 12 2 12 11 0 9 5 16 10 16 6 0 10 4 10 8 0 18 -30 8 -51 -17z
m24 4 c-3 -9 -8 -14 -10 -11 -3 3 -2 9 2 15 9 16 15 13 8 -4z"/>
<path d="M3454 11348 l-19 -23 23 19 c21 18 27 26 19 26 -2 0 -12 -10 -23 -22z"/>
<path d="M3401 11287 l-25 -32 32 29 c33 31 37 36 25 35 -5 0 -19 -14 -32 -32z"/>
<path d="M3870 11233 c-156 -23 -225 -39 -283 -65 -37 -17 -66 -33 -64 -35 2
-2 25 6 51 17 72 33 187 50 324 50 182 0 283 -32 399 -127 30 -25 57 -43 59
-40 12 11 -119 135 -168 159 -80 39 -216 57 -318 41z"/>
<path d="M3978 11003 c7 -3 16 -2 19 1 4 3 -2 6 -13 5 -11 0 -14 -3 -6 -6z"/>
<path d="M4010 10995 c0 -2 29 -20 64 -40 60 -33 95 -69 100 -102 1 -7 5 -12
9 -11 3 2 19 -16 34 -39 36 -56 42 -47 9 13 -25 44 -25 48 -9 66 14 15 14 21
3 31 -10 9 -11 9 -6 -1 4 -7 2 -19 -4 -28 -11 -12 -17 -9 -44 20 -34 38 -156
110 -156 91z"/>
<path d="M3760 10939 c-71 -14 -181 -52 -170 -59 6 -4 -11 -26 -39 -53 -70
-65 -73 -75 -10 -38 155 92 288 114 399 66 89 -38 124 -74 155 -160 15 -41 31
-75 34 -75 4 0 5 17 3 38 -3 39 2 37 35 -15 6 -10 1 17 -13 60 -13 43 -24 84
-24 91 0 46 -216 158 -299 155 -14 -1 -46 -5 -71 -10z"/>
<path d="M4875 10862 l-50 -16 69 -7 c52 -6 80 -15 110 -36 55 -38 106 -113
128 -187 17 -57 18 -58 13 -16 -11 91 -91 222 -154 254 -46 23 -65 25 -116 8z"/>
<path d="M3805 10843 c-65 -16 -105 -45 -144 -104 -51 -76 -55 -124 -14 -186
63 -97 226 -124 309 -51 56 49 68 81 60 161 -7 79 -25 116 -70 143 -62 38 -98
47 -141 37z m75 -160 l22 -28 -27 -22 c-33 -29 -60 -29 -79 -1 -20 29 -20 34
4 58 28 28 55 25 80 -7z m-170 -107 c0 -3 -4 -8 -10 -11 -5 -3 -10 -1 -10 4 0
6 5 11 10 11 6 0 10 -2 10 -4z m23 -51 c-3 -9 -8 -14 -10 -11 -3 3 -2 9 2 15
9 16 15 13 8 -4z m64 -41 c-3 -3 -12 -4 -19 -1 -8 3 -5 6 6 6 11 1 17 -2 13
-5z"/>
<path d="M4191 10815 c0 -5 9 -28 20 -50 10 -22 16 -29 13 -15 -7 28 -33 80
-33 65z"/>
<path d="M4840 10733 c0 -5 12 -20 28 -34 l27 -24 -25 30 c-14 17 -26 32 -27
34 -2 2 -3 0 -3 -6z"/>
<path d="M4749 10697 c6 -8 7 -18 3 -22 -4 -5 -1 -5 6 -1 10 6 10 11 1 22 -6
8 -14 14 -16 14 -3 0 0 -6 6 -13z"/>
<path d="M4830 10701 c0 -6 4 -13 10 -16 6 -3 7 1 4 9 -7 18 -14 21 -14 7z"/>
<path d="M4709 10674 c-10 -12 -9 -13 7 -7 17 6 17 5 6 -10 -12 -14 -11 -16 8
-12 29 6 30 7 9 27 -15 14 -19 15 -30 2z"/>
<path d="M4673 10628 c-11 -13 -29 -39 -38 -58 l-18 -35 24 25 c13 14 40 31
59 39 19 7 49 19 65 26 l30 14 -35 -6 c-19 -3 -47 -11 -62 -18 -32 -15 -35
-10 -11 17 9 10 14 18 11 18 -2 0 -14 -10 -25 -22z"/>
<path d="M4875 10643 c26 -24 88 -65 73 -47 -9 10 -32 28 -50 38 -18 10 -28
15 -23 9z"/>
<path d="M4780 10564 c-69 -12 -109 -36 -166 -101 -54 -62 -56 -65 -24 -47 19
10 52 31 73 46 117 82 252 18 324 -152 l32 -75 1 50 c0 100 -19 149 -85 214
-61 61 -95 75 -155 65z"/>
<path d="M3600 10525 c13 -14 26 -25 28 -25 3 0 -5 11 -18 25 -13 14 -26 25
-28 25 -3 0 5 -11 18 -25z"/>
<path d="M3640 10496 c0 -2 8 -10 18 -17 15 -13 16 -12 3 4 -13 16 -21 21 -21
13z"/>
<path d="M3687 10459 c7 -7 15 -10 18 -7 3 3 -2 9 -12 12 -14 6 -15 5 -6 -5z"/>
<path d="M4705 10455 c-49 -17 -70 -45 -91 -113 -18 -60 -14 -101 16 -150 30
-50 76 -74 131 -69 85 7 130 64 137 174 4 52 0 68 -18 99 -27 42 -74 74 -110
74 -14 -1 -43 -7 -65 -15z m51 -133 c26 -53 -20 -86 -51 -38 -13 20 -14 29 -5
46 14 26 41 22 56 -8z m-111 -72 c9 -17 13 -35 10 -41 -4 -5 -3 -8 2 -7 13 4
54 -28 46 -36 -4 -4 -1 -5 7 -2 46 14 70 16 68 4 -2 -7 3 -12 10 -10 8 1 11
-2 7 -9 -4 -6 -16 -9 -26 -6 -11 3 -16 1 -13 -4 8 -13 -45 0 -73 17 -24 15
-63 83 -63 109 0 23 8 18 25 -15z"/>
<path d="M4676 10177 c3 -10 9 -15 12 -12 3 3 0 11 -7 18 -10 9 -11 8 -5 -6z"/>
<path d="M2703 10438 c-20 -26 -53 -122 -53 -152 0 -22 3 -27 9 -17 5 8 8 23
6 33 -2 10 0 18 5 18 5 0 8 6 6 13 -1 6 -1 9 1 4 3 -4 9 -4 14 -1 6 3 5 11 -2
20 -8 10 -8 14 -1 14 6 0 9 8 6 18 -5 13 -4 14 4 3 6 -8 8 -21 5 -30 -4 -13
-3 -13 5 -2 6 8 8 21 5 30 -3 12 -1 11 7 -2 9 -15 7 -24 -14 -52 -30 -39 -31
-41 -11 -49 8 -3 14 -2 13 2 -3 9 41 92 48 92 3 0 2 -5 -2 -11 -10 -17 17 -29
40 -17 19 9 18 8 -3 -15 -13 -15 -27 -24 -31 -22 -4 3 -13 -2 -20 -10 -11 -13
-10 -14 4 -9 9 3 22 2 29 -4 8 -7 20 -6 37 3 14 8 21 14 17 15 -5 0 -18 -5
-29 -11 -15 -8 -19 -8 -14 0 4 6 24 19 45 29 29 14 38 15 38 5 0 -7 -7 -13
-14 -13 -8 0 -11 -5 -8 -10 3 -6 -5 -14 -18 -19 -32 -13 -97 -89 -97 -116 0
-24 20 -56 63 -102 16 -18 26 -36 22 -43 -4 -6 12 -2 36 10 41 22 75 23 124 4
11 -4 -5 19 -37 54 -32 33 -58 70 -58 81 0 11 14 29 30 41 17 12 30 30 30 41
0 25 -79 111 -94 102 -6 -3 -8 -3 -4 2 12 12 -11 44 -45 65 -36 23 -80 26 -94
8z m27 -18 c-8 -5 -19 -10 -25 -10 -5 0 -3 5 5 10 8 5 20 10 25 10 6 0 3 -5
-5 -10z m80 -20 c0 -4 -8 -14 -17 -21 -16 -12 -17 -12 -6 2 10 12 10 18 0 28
-9 10 -8 11 6 6 9 -4 17 -11 17 -15z m77 -96 c-3 -3 -12 -4 -19 -1 -8 3 -5 6
6 6 11 1 17 -2 13 -5z m31 -31 c-2 -37 -9 -48 -19 -32 -4 7 -5 18 -1 24 4 5 7
13 8 18 3 15 4 17 9 17 3 0 4 -12 3 -27z m-88 -18 c-10 -12 -10 -15 1 -16 8 0
3 -5 -11 -11 -14 -6 -31 -10 -39 -9 -7 1 -11 -4 -8 -11 2 -7 0 -22 -6 -33 -10
-19 -9 -20 11 -2 14 13 22 15 27 7 4 -6 4 -14 1 -17 -3 -4 -6 0 -6 8 0 8 -6 4
-16 -9 -21 -31 -34 -27 -34 9 0 23 10 41 36 65 36 34 68 48 44 19z m60 -25 c0
-4 -7 -13 -15 -20 -25 -21 -17 -45 32 -101 26 -30 41 -49 34 -42 -8 6 -20 9
-29 6 -8 -4 -13 -2 -9 3 3 6 -4 11 -16 11 -14 2 -17 -1 -9 -6 9 -5 5 -11 -13
-19 -23 -11 -29 -8 -62 21 -33 31 -35 35 -23 58 l13 24 13 -30 c7 -16 10 -33
8 -37 -3 -4 3 -5 12 -1 11 4 13 8 6 11 -7 2 -9 8 -6 13 3 6 15 4 29 -5 23 -15
24 -15 20 6 -5 24 -15 37 -15 20 0 -7 -5 -12 -11 -12 -6 0 -8 7 -5 16 3 8 2
13 -3 10 -4 -3 -13 6 -20 20 -15 34 -13 45 3 15 12 -21 14 -22 20 -5 4 11 2
20 -4 22 -7 3 -4 9 6 16 18 14 44 17 44 6z m-60 -91 c0 -6 -4 -7 -10 -4 -5 3
-10 11 -10 16 0 6 5 7 10 4 6 -3 10 -11 10 -16z"/>
<path d="M2846 10073 c-6 -14 -5 -15 5 -6 7 7 10 15 7 18 -3 3 -9 -2 -12 -12z"/>
<path d="M3738 10440 c12 -5 53 -12 90 -14 64 -5 64 -5 14 3 -130 21 -128 21
-104 11z"/>
<path d="M3148 10403 c7 -3 16 -2 19 1 4 3 -2 6 -13 5 -11 0 -14 -3 -6 -6z"/>
<path d="M3475 10380 c3 -6 -2 -10 -12 -11 -10 0 -13 -3 -6 -5 7 -3 20 -1 29
4 15 8 15 9 0 15 -10 4 -15 3 -11 -3z"/>
<path d="M3174 10348 c-4 -7 -4 -10 1 -6 4 4 15 2 24 -5 14 -11 14 -10 2 6
-16 20 -18 21 -27 5z"/>
<path d="M2736 10332 c-2 -4 4 -8 15 -8 10 0 19 4 19 8 0 4 -6 8 -14 8 -8 0
-17 -4 -20 -8z"/>
<path d="M3170 10326 c0 -2 7 -7 16 -10 8 -3 12 -2 9 4 -6 10 -25 14 -25 6z"/>
<path d="M3218 10313 c7 -3 16 -2 19 1 4 3 -2 6 -13 5 -11 0 -14 -3 -6 -6z"/>
<path d="M3280 10300 c14 -4 32 -8 40 -9 13 -1 13 0 0 9 -8 5 -26 9 -40 9
l-25 -1 25 -8z"/>
<path d="M3351 10289 c13 -8 97 -13 88 -5 -2 2 -26 6 -53 9 -30 3 -43 1 -35
-4z"/>
<path d="M3458 10283 c6 -2 18 -2 25 0 6 3 1 5 -13 5 -14 0 -19 -2 -12 -5z"/>
<path d="M4895 10096 c-31 -21 -69 -26 -105 -16 -19 5 -36 8 -38 6 -2 -3 13
-9 34 -15 42 -12 96 -2 129 23 25 19 7 21 -20 2z"/>
<path d="M2730 10082 c0 -10 58 -67 63 -61 2 2 -11 19 -29 37 -19 18 -34 29
-34 24z"/>
<path d="M4549 10056 c-47 -35 -59 -52 -59 -87 0 -28 17 -15 41 32 12 24 24
37 31 33 6 -4 8 -3 5 3 -8 13 19 37 32 29 6 -4 8 -13 5 -20 -3 -8 -1 -17 5
-21 7 -3 11 2 11 14 0 11 -5 23 -10 26 -6 4 -8 11 -5 16 12 18 -11 8 -56 -25z"/>
<path d="M4583 10015 c0 -8 4 -12 9 -9 5 3 6 10 3 15 -9 13 -12 11 -12 -6z"/>
<path d="M4554 10000 c0 -13 4 -16 10 -10 7 7 7 13 0 20 -6 6 -10 3 -10 -10z"/>
<path d="M3790 9924 c0 -6 21 -30 48 -55 73 -69 102 -89 52 -35 -45 48 -45 48
-12 31 19 -9 36 -14 39 -12 2 3 -5 8 -16 12 -12 3 -21 13 -21 21 0 9 -10 14
-27 14 -14 0 -35 7 -45 17 -10 9 -18 12 -18 7z"/>
<path d="M4070 9879 c25 -4 56 -7 70 -7 l25 0 -25 8 c-14 4 -45 8 -70 8 l-45
-1 45 -8z"/>
<path d="M4188 9863 c7 -3 16 -2 19 1 4 3 -2 6 -13 5 -11 0 -14 -3 -6 -6z"/>
<path d="M4283 9830 c115 -49 159 -94 125 -128 -8 -8 -16 -8 -32 0 -19 10 -20
10 -7 -6 12 -14 12 -18 -5 -31 -10 -8 -27 -15 -36 -15 -18 0 -37 -20 -19 -20
6 0 50 20 98 45 48 25 81 45 74 45 -7 0 -35 20 -62 44 -30 27 -76 55 -117 70
-91 35 -103 32 -19 -4z"/>
<path d="M4133 9588 c-41 -14 -41 -26 0 -66 29 -28 38 -31 68 -26 19 4 44 16
56 27 26 23 19 38 -28 63 -32 16 -50 16 -96 2z m7 -40 c0 -6 7 -7 16 -4 8 3
12 2 9 -3 -3 -5 1 -11 9 -13 10 -2 11 -6 3 -13 -9 -8 -20 -1 -41 22 -16 20
-22 31 -12 27 9 -3 16 -11 16 -16z m115 3 c3 -5 2 -12 -3 -15 -5 -3 -9 1 -9 9
0 17 3 19 12 6z"/>
<path d="M3093 9573 c9 -2 23 -2 30 0 6 3 -1 5 -18 5 -16 0 -22 -2 -12 -5z"/>
<path d="M3440 7582 c0 -10 26 -36 62 -62 94 -68 202 -178 229 -234 28 -58 44
-67 60 -33 25 55 -26 161 -134 282 l-58 65 -80 0 c-69 0 -79 -2 -79 -18z"/>
<path d="M4188 4663 c7 -3 16 -2 19 1 4 3 -2 6 -13 5 -11 0 -14 -3 -6 -6z"/>
<path d="M4238 4653 c7 -3 16 -2 19 1 4 3 -2 6 -13 5 -11 0 -14 -3 -6 -6z"/>
<path d="M4278 4643 c7 -3 16 -2 19 1 4 3 -2 6 -13 5 -11 0 -14 -3 -6 -6z"/>
<path d="M4338 4633 c7 -3 16 -2 19 1 4 3 -2 6 -13 5 -11 0 -14 -3 -6 -6z"/>
<path d="M4448 4613 c7 -3 16 -2 19 1 4 3 -2 6 -13 5 -11 0 -14 -3 -6 -6z"/>
<path d="M7023 4683 c9 -2 23 -2 30 0 6 3 -1 5 -18 5 -16 0 -22 -2 -12 -5z"/>
<path d="M6991 4658 c-1 -16 4 -28 9 -28 12 0 12 8 0 35 -8 18 -9 17 -9 -7z"/>
<path d="M6863 4313 c9 -2 23 -2 30 0 6 3 -1 5 -18 5 -16 0 -22 -2 -12 -5z"/>
<path d="M6454 4163 c-33 -6 -55 -37 -61 -85 -8 -58 -19 -78 -46 -78 -28 0
-41 9 -56 38 -13 24 -51 30 -51 8 0 -19 -51 -55 -89 -62 -70 -14 -57 -64 23
-85 22 -6 62 -22 88 -35 l48 -24 42 21 c36 18 46 20 80 9 30 -8 48 -8 76 1 40
13 152 94 152 110 0 12 -21 48 -42 73 -10 11 -18 31 -18 46 0 14 -7 36 -16 48
-12 18 -24 22 -62 21 -26 -1 -57 -4 -68 -6z"/>
<path d="M640 1453 c-31 -13 -146 -29 -475 -63 -178 -19 -165 -12 -165 -86 l0
-64 48 5 c26 2 67 6 92 9 25 3 97 10 160 16 63 6 126 13 139 15 29 5 93 14
141 20 19 2 71 8 115 14 44 6 111 13 148 16 56 6 68 10 65 23 -2 12 -17 19
-46 23 -28 3 -53 16 -75 35 -32 31 -78 55 -100 53 -7 0 -28 -7 -47 -16z"/>
</g>
</svg>
