<?xml version="1.0" standalone="no"?>
<!DOCTYPE svg PUBLIC "-//W3C//DTD SVG 20010904//EN"
 "http://www.w3.org/TR/2001/REC-SVG-20010904/DTD/svg10.dtd">
<svg version="1.0" xmlns="http://www.w3.org/2000/svg"
 width="736.000000pt" height="1104.000000pt" viewBox="0 0 736.000000 1104.000000"
 preserveAspectRatio="xMidYMid meet">

<g transform="translate(0.000000,1104.000000) scale(0.100000,-0.100000)"
fill="#000000" stroke="none">
<path d="M0 7996 c0 -2696 2 -3045 15 -3050 8 -3 15 -11 15 -17 0 -8 -4 -8
-15 1 -13 11 -15 -41 -15 -459 0 -259 3 -471 8 -471 4 0 25 12 45 26 21 14 41
23 44 20 8 -8 -35 -53 -70 -74 -25 -15 -27 -21 -26 -70 1 -29 5 -48 9 -42 9
15 60 -26 60 -49 0 -28 -20 -41 -46 -31 l-24 10 0 -1190 c0 -655 4 -1190 8
-1190 5 0 32 20 61 45 30 25 70 53 90 62 43 18 135 20 187 3 100 -33 226 -135
279 -225 13 -22 35 -80 49 -128 36 -125 57 -167 101 -206 96 -84 182 -91 380
-32 153 45 210 54 275 40 37 -8 49 -15 52 -32 8 -40 -1 -47 -60 -47 -62 0
-216 -53 -280 -96 -74 -50 -199 -72 -318 -54 -171 25 -259 62 -304 127 -20 29
-24 48 -25 121 -2 123 -26 163 -133 216 -89 45 -144 51 -239 27 -45 -12 -91
-21 -102 -21 -21 0 -21 -3 -21 -309 l0 -309 73 19 c165 43 301 5 422 -116 87
-86 99 -117 100 -245 1 -138 15 -164 115 -216 l55 -29 2860 -3 c2498 -2 2858
0 2845 12 -8 8 -76 59 -151 113 -75 54 -190 139 -256 188 -67 50 -199 147
-294 217 -252 184 -620 465 -649 495 -24 25 -23 25 17 -3 22 -16 88 -64 145
-106 138 -104 272 -201 458 -336 234 -170 240 -174 465 -342 264 -198 327
-240 354 -240 12 0 19 4 16 10 -3 6 -1 10 4 10 6 0 11 -4 11 -10 0 -6 135 -10
385 -10 l385 0 0 175 c0 96 -3 175 -6 175 -16 0 -114 -72 -143 -105 -18 -21
-36 -33 -43 -29 -8 5 -9 2 -5 -10 5 -14 3 -17 -8 -12 -10 3 -15 -1 -16 -12 0
-9 -3 -12 -5 -5 -3 7 -17 0 -35 -20 -20 -21 -32 -28 -36 -19 -6 15 -29 16 -38
2 -4 -6 -2 -17 5 -25 7 -9 8 -15 0 -20 -15 -9 -30 3 -30 26 0 25 -16 25 -23
-1 -3 -14 -10 -18 -22 -14 -9 4 -14 13 -11 20 3 8 1 14 -4 14 -6 0 -10 -7 -10
-15 0 -8 -6 -16 -12 -16 -7 -1 -18 -2 -24 -3 -6 0 -19 -10 -30 -20 -15 -16
-16 -19 -2 -14 9 4 19 1 22 -7 3 -9 0 -12 -10 -8 -20 7 -18 -7 4 -23 14 -11
14 -13 2 -14 -8 0 -26 14 -39 30 -13 17 -28 30 -35 30 -7 0 -7 -3 -1 -8 13 -9
16 -62 4 -62 -5 0 -9 6 -9 14 0 21 -28 40 -42 29 -7 -6 -21 -13 -30 -16 -15
-5 -16 -1 -11 24 4 24 3 28 -10 23 -9 -3 -18 -20 -20 -37 -4 -29 -5 -30 -12
-9 -8 24 -25 30 -25 10 0 -9 -3 -9 -9 1 -6 10 -19 12 -40 8 -18 -4 -30 -3 -27
2 3 5 -5 12 -19 15 -22 6 -24 9 -15 27 6 11 9 25 7 32 -2 7 -11 -2 -20 -20
-16 -30 -16 -32 3 -38 11 -4 18 -11 14 -16 -3 -6 0 -17 8 -27 11 -14 8 -14
-17 2 -92 59 -95 61 -90 81 3 11 2 14 -1 8 -8 -18 -27 -16 -21 1 4 11 1 13
-11 9 -13 -5 -12 -1 4 15 12 11 24 25 25 30 9 21 110 83 174 106 90 32 169 44
330 50 89 3 150 11 193 25 34 10 62 17 62 15 0 -7 124 57 143 74 15 14 17 43
17 340 l0 325 -26 -24 c-14 -13 -55 -68 -92 -122 -114 -170 -227 -236 -402
-237 -65 -1 -94 -11 -193 -68 -33 -19 -44 -21 -100 -13 -98 14 -212 6 -302
-23 -83 -27 -273 -125 -290 -150 -8 -13 -13 -12 -37 2 -15 9 -28 25 -28 35 0
11 -5 17 -13 14 -14 -5 -74 39 -65 48 6 6 15 3 66 -24 26 -13 60 3 138 66 58
47 138 79 282 114 69 17 143 40 165 50 70 36 123 94 152 167 14 37 39 92 54
122 52 105 165 150 247 99 41 -25 54 -47 54 -88 0 -26 -6 -34 -42 -52 -24 -12
-44 -22 -45 -23 -1 0 -4 -13 -8 -27 -10 -40 41 -89 93 -89 84 0 158 48 247
160 30 37 74 80 99 96 l46 29 0 1618 c0 1533 -1 1617 -17 1617 -10 0 -31 -9
-48 -20 -21 -14 -25 -20 -12 -20 9 0 17 -4 17 -10 0 -5 -7 -10 -15 -10 -18 0
-103 39 -110 50 -3 5 14 24 37 44 l43 36 -120 -1 -120 0 44 -22 c25 -12 46
-27 48 -33 2 -7 -16 -21 -40 -33 -119 -58 -229 -35 -567 119 -63 29 -134 61
-158 71 -23 11 -40 23 -38 28 5 7 93 -1 159 -15 15 -3 27 -4 27 -1 0 14 -284
213 -362 253 -104 53 -264 172 -360 266 -149 146 -405 440 -485 558 -37 55
-86 150 -80 156 3 3 36 -30 75 -73 198 -218 187 -200 -38 65 -85 100 -178 215
-207 255 l-52 72 31 28 c18 15 35 27 39 27 4 0 139 73 301 163 161 90 307 170
323 178 28 14 285 150 455 242 208 111 285 150 357 182 43 20 69 28 59 20 -11
-8 -16 -15 -10 -15 5 0 0 -7 -10 -15 -13 -10 -16 -18 -9 -27 13 -17 7 -89 -12
-134 -8 -20 -15 -44 -15 -54 0 -10 -7 -20 -15 -24 -8 -3 -15 -14 -15 -24 0
-10 -3 -22 -7 -26 -4 -4 -8 -23 -10 -42 -1 -20 -7 -42 -13 -49 -8 -10 -7 -14
2 -18 7 -3 0 -6 -16 -6 -22 -1 -27 -5 -22 -18 4 -10 -2 -25 -15 -39 -12 -12
-22 -37 -24 -55 -1 -21 -9 -35 -21 -40 -17 -7 -17 -8 -1 -8 21 -1 23 -21 2
-21 -9 0 -15 -9 -15 -23 0 -13 -9 -26 -22 -32 -14 -6 -22 -17 -20 -29 5 -28
-26 -58 -49 -45 -24 13 -26 -6 -2 -20 14 -8 15 -12 4 -25 -7 -9 -20 -16 -28
-16 -10 0 -11 -4 -3 -19 8 -16 5 -25 -14 -44 -14 -14 -31 -27 -38 -30 -8 -4
-7 -6 5 -6 9 -1 17 -5 17 -9 0 -5 -10 -8 -22 -8 -18 1 -24 -5 -27 -29 -3 -26
-4 -27 -11 -10 -6 16 -9 11 -18 -25 -5 -25 -10 -37 -11 -27 -1 10 -6 15 -11
12 -6 -4 -8 -11 -4 -16 3 -6 -3 -13 -15 -16 -23 -6 -28 -28 -8 -37 6 -3 2 -3
-11 0 -21 5 -22 3 -16 -22 5 -19 4 -25 -5 -20 -6 4 -11 1 -11 -8 0 -8 -9 -18
-20 -21 -11 -4 -18 -10 -15 -14 2 -5 -4 -16 -15 -26 -11 -10 -20 -25 -20 -34
0 -13 -2 -13 -9 -2 -12 19 -33 3 -26 -20 6 -16 2 -18 -27 -14 -18 3 -27 3 -20
-1 17 -8 15 -27 -2 -21 -10 4 -16 -2 -18 -16 -2 -15 -10 -22 -25 -21 -12 0
-20 -4 -17 -8 4 -5 -2 -15 -11 -22 -16 -12 -16 -13 -1 -19 24 -10 19 -21 -15
-34 -23 -9 -29 -16 -25 -30 4 -13 -7 -29 -39 -57 -36 -33 -42 -43 -34 -58 6
-10 14 -16 20 -13 5 4 9 -2 9 -11 0 -14 -3 -15 -12 -6 -17 17 -31 15 -24 -4 3
-8 2 -12 -4 -9 -14 9 -12 -9 2 -23 9 -9 9 -12 1 -12 -11 0 -62 51 -177 174
-20 22 -36 35 -36 29 0 -16 244 -266 248 -254 2 6 8 11 14 11 6 0 7 -7 4 -16
-7 -18 50 -71 72 -66 8 2 11 -1 8 -7 -8 -12 57 -63 75 -58 8 2 10 2 6 -1 -11
-6 23 -42 39 -42 7 0 14 -3 16 -7 5 -13 183 -146 238 -178 13 -8 13 -7 1 8 -8
10 -11 20 -7 24 3 3 6 1 6 -6 0 -7 15 -19 33 -27 17 -8 43 -22 57 -29 21 -13
22 -15 6 -15 -20 0 -20 0 0 -14 12 -9 23 -11 30 -5 7 6 16 4 24 -6 11 -13 10
-14 -5 -9 -13 5 -16 4 -11 -5 4 -6 16 -9 27 -6 10 4 19 2 19 -3 0 -5 14 -12
31 -16 19 -4 33 -13 36 -26 5 -19 73 -67 73 -51 0 5 -13 14 -30 21 -16 7 -27
17 -24 22 4 6 9 5 14 -2 4 -7 13 -9 20 -5 8 5 11 4 7 -2 -3 -5 12 -18 34 -27
22 -10 38 -20 35 -23 -3 -3 -12 0 -21 7 -9 7 -18 11 -20 8 -8 -8 22 -29 44
-31 11 0 18 -4 15 -8 -2 -4 21 -22 51 -39 39 -22 61 -29 77 -24 20 6 21 5 9
-9 -11 -15 -10 -18 14 -27 15 -6 30 -8 33 -5 3 3 1 5 -5 5 -6 0 -14 7 -17 15
-5 13 -1 12 18 -2 13 -10 23 -22 23 -28 -7 -42 462 -98 578 -69 l25 6 0 215
c0 140 -3 212 -10 208 -6 -3 -10 -1 -10 4 0 6 4 11 10 11 6 0 10 145 10 410 0
226 -3 410 -6 410 -3 0 -14 -5 -25 -11 -11 -6 -25 -8 -32 -6 -7 3 5 12 26 21
l37 16 0 810 c0 767 -1 809 -17 803 -10 -4 -76 -37 -148 -73 -404 -209 -479
-248 -575 -300 -175 -95 -562 -299 -603 -317 -54 -25 -25 -4 56 40 45 24 127
69 182 99 55 30 132 72 170 93 39 21 75 41 80 45 15 11 397 210 643 336 l212
108 0 53 c0 29 -2 53 -5 53 -11 0 -483 -239 -700 -355 -305 -163 -392 -208
-635 -333 -113 -57 -209 -108 -215 -112 -5 -4 -64 -36 -130 -70 -211 -111
-695 -376 -742 -407 -25 -17 -27 -16 -37 1 -59 101 -137 206 -207 280 -46 48
-87 93 -91 100 -4 6 -34 31 -67 56 -33 25 -64 52 -68 60 -4 8 -8 82 -9 164 -1
91 -7 153 -13 159 -6 6 -33 12 -59 13 -40 2 -47 5 -50 24 -3 16 0 20 10 14 14
-9 19 -10 54 -12 28 -2 121 -72 145 -109 28 -41 39 -89 29 -123 -5 -18 -5 -28
0 -25 5 3 12 21 16 40 9 47 -22 106 -90 175 -40 40 -52 58 -44 67 6 7 14 10
19 7 5 -3 8 -2 7 3 -2 5 7 20 18 35 l21 27 23 -24 c75 -80 235 -156 323 -154
37 1 34 2 -27 15 -38 7 -94 26 -124 41 -62 31 -156 115 -158 141 -1 9 -5 26
-8 37 -5 16 -4 16 5 -2 14 -27 41 -40 32 -15 -5 14 -3 15 8 5 21 -21 42 -17
30 6 -6 10 -8 21 -5 24 3 3 0 15 -6 27 -10 18 -8 24 7 35 16 12 17 14 1 20 -9
4 -19 13 -22 22 -4 10 -2 13 7 10 9 -3 12 4 9 29 -2 19 -1 34 3 34 3 0 25 -13
48 -28 56 -38 139 -72 175 -72 47 0 118 29 159 66 l38 34 -53 -32 c-72 -43
-159 -50 -221 -19 -23 12 -46 32 -50 44 -12 31 -5 34 27 10 52 -38 117 -56
169 -47 l48 8 -65 6 c-93 9 -210 72 -210 114 0 12 7 11 38 -4 42 -21 92 -35
92 -27 0 3 -16 15 -35 27 -19 12 -35 25 -35 29 0 12 51 1 75 -15 33 -23 40
-16 13 14 -31 32 -48 88 -48 155 0 57 15 61 30 7 6 -22 13 -40 17 -40 6 0 -2
56 -13 98 -6 22 -2 21 77 -19 80 -41 88 -43 174 -43 53 -1 98 4 110 11 17 11
13 13 -35 14 -30 2 -68 3 -85 4 -38 1 -71 20 -86 46 -8 15 -8 19 0 15 17 -11
13 0 -19 51 -45 71 -71 164 -77 281 -6 117 -7 117 75 76 65 -32 90 -66 94
-130 l3 -49 19 40 c30 62 27 159 -6 216 -14 24 -38 57 -53 73 -14 15 -25 29
-23 31 2 1 27 15 56 31 30 15 74 50 98 77 57 64 123 197 129 262 5 50 5 50 -9
19 -14 -29 -43 -60 -55 -58 -3 0 -19 -5 -36 -12 -16 -6 -41 -13 -55 -15 -55
-6 -198 56 -228 98 -7 10 -39 68 -71 128 -47 90 -62 110 -80 109 l-21 -1 22
24 c18 20 30 23 58 19 33 -5 34 -5 8 5 -28 10 -36 24 -20 31 23 9 86 123 108
196 25 81 28 136 4 77 -25 -62 -66 -76 -231 -78 -89 -1 -114 11 -218 102 -36
33 -82 73 -101 90 l-35 30 45 48 c25 26 53 57 63 69 17 20 17 21 -20 21 -21 0
-30 -2 -20 -4 9 -2 15 -8 12 -13 -3 -4 -19 -3 -35 3 -25 10 -33 9 -40 -3 -16
-24 -11 -4 15 72 19 56 23 80 16 103 -6 18 -10 23 -10 12 -2 -37 -32 -86 -49
-80 -12 5 -14 2 -9 -11 4 -11 3 -15 -4 -10 -6 3 -21 -4 -34 -16 -12 -12 -34
-23 -46 -25 -13 -2 -42 -8 -64 -13 -50 -12 -295 -22 -295 -13 0 9 82 29 156
37 30 4 54 10 54 14 0 7 -41 47 -44 42 0 -2 -14 1 -29 7 -16 6 -34 11 -41 11
-6 0 -17 5 -23 11 -20 20 -237 5 -308 -20 -32 -12 -64 -20 -70 -17 -9 3 12 14
127 64 39 17 48 26 57 59 26 93 1 229 -55 291 l-24 27 10 -28 c15 -42 12 -55
-8 -32 -10 11 -31 31 -46 45 l-29 25 18 -34 c32 -64 -2 -163 -92 -266 -24 -26
-53 -49 -65 -50 -57 -7 -207 -49 -258 -72 -19 -9 -36 -14 -36 -12 -1 2 -11 -4
-22 -14 -12 -11 -25 -16 -31 -13 -5 4 -16 -3 -24 -14 -7 -11 -17 -17 -20 -13
-4 3 -7 1 -7 -5 0 -7 -9 -12 -20 -12 -11 0 -20 -4 -20 -10 0 -5 -16 -17 -36
-25 -40 -16 -148 -122 -189 -183 -14 -21 -41 -76 -60 -123 l-35 -84 0 45 c0
108 146 303 310 411 79 52 187 106 242 119 26 7 45 16 43 21 -3 4 -11 6 -18 4
-7 -2 -38 -7 -71 -9 -32 -3 -61 -8 -65 -12 -3 -4 10 -4 29 -1 21 4 29 3 20 -2
-8 -5 -33 -11 -55 -15 -36 -6 -117 -29 -155 -43 -8 -3 -21 -7 -28 -9 -8 -1
-21 -9 -30 -17 -10 -8 -28 -20 -42 -27 -21 -11 -19 -7 13 28 27 31 37 51 37
75 0 40 -30 106 -60 132 l-23 20 17 -27 c10 -15 16 -35 13 -45 -3 -15 -6 -13
-15 9 -6 14 -17 29 -24 34 -7 4 -10 4 -6 -1 4 -4 3 -14 -2 -21 -6 -6 -10 -16
-9 -20 1 -5 -1 -17 -5 -26 -4 -10 -6 -23 -4 -30 3 -7 -1 -19 -9 -26 -7 -7 -16
-25 -20 -40 -3 -15 -9 -29 -13 -32 -18 -14 -52 -136 -65 -233 -21 -158 -37
-163 -33 -9 2 67 0 122 -4 122 -5 0 -8 -7 -8 -15 0 -19 -36 -91 -49 -99 -5 -3
-7 4 -4 16 4 21 -57 -65 -73 -102 -4 -8 -15 -23 -25 -33 -19 -17 -52 -118 -64
-191 -4 -26 -10 -35 -17 -28 -13 13 -35 184 -32 252 l3 55 -19 -55 c-24 -69
-26 -189 -4 -290 8 -41 17 -88 20 -105 2 -16 8 -46 14 -65 5 -19 10 -38 10
-42 0 -14 -115 51 -155 88 -39 35 -40 36 -43 14 -7 -43 8 -105 38 -158 17 -28
35 -52 40 -52 5 0 7 -7 4 -15 -4 -9 0 -15 10 -15 10 0 16 -9 17 -22 l0 -23 11
23 c6 12 17 22 25 22 8 0 11 -5 7 -12 -5 -8 -2 -9 12 -3 34 14 67 18 61 8 -6
-9 -116 -49 -157 -57 -8 -2 -28 -9 -45 -16 -17 -8 -63 -14 -104 -13 -73 0 -73
0 -50 -18 34 -26 103 -43 145 -36 20 3 58 18 85 32 27 14 49 22 49 19 0 -3
-21 -30 -47 -59 -63 -68 -141 -201 -156 -264 -6 -28 -15 -51 -19 -51 -11 0
-10 34 3 67 7 20 7 25 -1 17 -21 -21 -34 -130 -22 -185 7 -28 9 -56 5 -62 -3
-7 -2 -8 3 -4 5 5 17 32 27 60 16 48 17 49 11 12 -16 -94 0 -265 29 -321 24
-46 65 -93 98 -110 l29 -14 -25 36 c-19 28 -25 50 -25 89 0 66 11 145 20 145
9 0 40 -101 61 -204 16 -78 16 -93 4 -130 l-14 -41 20 24 c23 28 24 67 4 141
-21 77 -18 105 5 55 12 -25 19 -64 19 -105 1 -56 -4 -75 -35 -135 -46 -91 -94
-140 -164 -166 -54 -20 -123 -22 -162 -5 -38 17 -16 -15 28 -44 130 -82 240
-73 365 31 l46 38 -13 -47 c-6 -26 -15 -56 -19 -67 -4 -12 2 -8 15 10 20 28
21 29 15 5 -4 -14 -21 -50 -38 -80 -18 -30 -31 -60 -29 -66 1 -6 -44 -54 -100
-106 -57 -53 -111 -111 -122 -129 l-18 -34 31 37 c36 42 111 80 190 97 43 9
56 9 63 -1 6 -10 8 -8 8 5 0 9 4 17 9 17 5 0 14 -30 21 -67 12 -69 45 -149 80
-193 l20 -25 0 57 c0 37 5 62 15 72 8 8 15 26 15 40 0 14 4 28 10 31 14 8 12
-11 -4 -66 -17 -55 -22 -144 -11 -182 9 -34 1 -44 -22 -26 -15 11 -16 11 -6
-1 7 -8 13 -32 14 -55 l1 -40 9 35 c6 19 12 42 15 50 3 8 7 51 8 95 3 78 32
195 48 195 4 0 8 -6 8 -14 0 -26 16 -26 18 0 1 13 -3 24 -8 24 -6 0 -10 8 -10
18 1 23 28 -12 75 -94 19 -33 45 -69 57 -80 l21 -19 -17 26 c-9 14 -14 34 -10
43 4 11 2 15 -8 11 -9 -4 -22 14 -41 56 -15 34 -25 64 -22 67 3 3 5 0 5 -7 0
-7 5 -9 10 -6 6 3 10 1 10 -5 0 -6 4 -8 10 -5 6 3 10 -4 10 -17 0 -17 3 -19 9
-9 7 11 12 10 22 -8 8 -11 21 -21 29 -21 8 0 51 -35 95 -77 44 -43 95 -91 115
-107 19 -16 -29 35 -108 113 -149 150 -201 216 -244 316 -34 80 -33 75 -67
270 -16 94 -38 198 -49 230 -24 70 -21 82 6 28 24 -47 50 -135 92 -313 29
-124 60 -217 78 -230 4 -3 20 -25 37 -49 16 -24 31 -38 33 -32 5 14 32 14 32
0 0 -5 5 -7 11 -3 8 5 8 8 0 14 -7 3 -9 14 -5 23 3 10 1 24 -6 32 -16 20 -3
19 17 0 12 -12 12 -19 3 -30 -10 -12 -9 -16 2 -20 8 -3 19 -5 24 -3 13 3 54
-21 54 -32 0 -15 -27 -12 -44 5 -13 14 -16 13 -26 -5 -9 -17 -8 -21 2 -19 31
4 48 -2 48 -17 0 -11 6 -14 23 -10 12 3 16 3 10 0 -18 -8 -16 -17 8 -32 19
-12 20 -12 14 9 -8 23 -7 23 19 5 41 -26 71 -18 71 19 -1 37 -35 58 -72 44
-19 -7 -24 -6 -20 3 2 7 0 21 -5 31 -7 14 -3 20 23 29 l32 11 -29 24 c-21 17
-26 25 -16 31 13 9 14 7 -53 69 -31 29 -46 93 -23 93 9 0 9 3 1 11 -8 8 -9 19
-2 37 5 13 8 26 7 27 -2 1 -19 14 -39 28 -38 28 -86 35 -120 17 -16 -9 -19 -7
-19 9 0 21 67 74 82 65 4 -3 8 4 8 15 0 11 7 26 15 35 8 8 18 29 21 46 4 17
10 33 14 35 9 6 -8 85 -21 100 -10 10 -12 32 -2 22 3 -4 13 -1 21 6 13 10 14
8 8 -18 -5 -22 -4 -26 4 -15 5 8 10 11 10 6 0 -6 6 -4 13 3 10 10 9 14 -5 22
-10 6 -18 19 -18 29 0 14 5 18 18 13 15 -6 15 -5 3 10 -11 13 -17 15 -28 6 -7
-7 -17 -9 -20 -5 -4 4 -1 11 7 16 12 7 12 12 2 22 -6 6 -12 19 -12 28 0 10 7
6 24 -12 30 -36 49 -37 40 -2 -6 22 -4 25 12 22 11 -2 19 -12 19 -22 0 -11 6
-21 13 -24 6 -2 13 -20 13 -40 2 -34 2 -35 6 -7 6 43 23 56 23 17 0 -36 15
-43 25 -11 5 14 13 19 26 16 25 -7 36 13 14 25 -14 8 -15 12 -4 18 24 16 38
-19 21 -53 -14 -29 -16 -29 -29 -11 -15 19 -15 19 -11 0 5 -32 26 -30 64 8 20
20 34 29 30 21 -8 -22 3 -45 20 -38 8 3 14 2 13 -3 -3 -17 14 -74 21 -69 4 2
7 21 8 41 2 39 12 62 12 27 0 -27 27 -21 67 15 77 70 70 66 89 48 11 -11 14
-25 10 -43 -9 -35 34 -96 85 -121 36 -18 37 -20 17 -26 -13 -3 -41 -6 -63 -6
-43 0 -74 -14 -62 -26 4 -5 23 -8 42 -8 32 0 33 -1 14 -14 -15 -11 -24 -11
-32 -3 -6 6 -22 11 -37 11 -25 -1 -25 -1 5 -14 51 -22 93 -27 102 -12 7 12 90
34 146 39 23 2 22 13 -3 20 -10 3 -27 -1 -37 -9 -10 -7 -31 -13 -48 -13 -29 1
-29 1 -5 8 42 13 124 58 142 78 10 10 31 46 48 78 27 55 30 57 31 30 l1 -30
14 30 14 30 -6 -40 c-4 -22 -11 -48 -16 -57 -19 -38 12 -16 36 25 14 23 26 38
26 34 0 -12 -30 -69 -51 -96 -17 -21 -19 -22 -20 -5 0 11 -3 13 -6 7 -2 -7
-11 -13 -19 -13 -9 0 -12 -4 -9 -10 3 -5 0 -10 -7 -10 -7 0 -20 -5 -28 -10
-13 -8 -13 -11 -1 -19 21 -14 -23 -38 -105 -57 -38 -9 -76 -25 -85 -35 -9 -10
-19 -15 -23 -12 -3 4 -6 1 -6 -5 0 -7 6 -13 13 -13 6 -1 17 -2 22 -4 6 -1 18
-3 28 -3 10 -1 15 -6 12 -12 -3 -5 1 -10 9 -10 9 0 16 -7 16 -15 0 -8 4 -15
10 -15 5 0 7 7 4 15 -7 17 11 21 21 5 9 -15 25 -12 25 5 0 8 7 15 15 15 8 0
15 -5 15 -11 0 -5 8 -9 18 -8 30 3 37 -1 22 -12 -11 -8 -5 -9 25 -5 28 4 34 3
20 -4 -18 -8 -18 -9 -2 -9 11 -1 15 -5 11 -13 -4 -6 -9 -23 -10 -37 -1 -14 -5
-36 -8 -49 -3 -13 -1 -20 5 -17 5 4 9 16 9 28 0 18 2 19 10 7 13 -20 13 -4 0
21 -14 25 3 58 27 54 12 -1 26 11 40 34 31 49 29 27 -3 -39 -14 -30 -30 -64
-34 -76 -10 -25 -102 -89 -150 -102 -31 -9 -32 -10 -9 -11 35 -1 89 22 129 55
28 24 32 25 28 8 -8 -45 -163 -113 -192 -84 -17 17 -27 11 -16 -10 6 -12 21
-20 36 -20 14 0 34 -5 45 -11 15 -7 39 -7 87 2 37 6 83 12 102 12 19 0 38 5
42 11 5 8 8 7 8 -1 0 -15 -37 -36 -50 -28 -5 3 -11 1 -15 -5 -3 -5 1 -10 9
-10 9 0 16 -6 16 -14 0 -17 27 -29 43 -20 8 5 7 2 0 -7 -7 -7 -13 -20 -13 -28
0 -11 4 -10 14 5 24 33 30 7 6 -31 -26 -42 -151 -142 -270 -216 -176 -109
-408 -204 -486 -197 -46 3 -50 -7 -6 -17 17 -3 62 4 115 20 48 14 91 25 95 25
13 0 44 -72 35 -81 -10 -10 -169 -89 -180 -89 -10 0 -61 -39 -51 -40 3 0 65
25 137 55 72 30 133 55 136 55 3 0 62 24 132 54 71 29 187 72 258 95 72 23
145 46 164 52 26 9 35 8 42 -2 15 -23 11 -28 -34 -39 -86 -22 -599 -210 -653
-240 -65 -36 60 4 251 80 231 91 403 143 442 134 50 -13 18 -32 -142 -84 -55
-18 -147 -51 -205 -72 -58 -22 -134 -51 -170 -64 -128 -48 -151 -62 -145 -86
2 -13 14 -77 26 -143 11 -66 27 -147 35 -180 7 -33 14 -65 14 -72 0 -13 -38
-38 -46 -30 -6 5 -40 137 -54 202 -30 143 -67 279 -78 283 -16 5 -15 -22 4
-83 8 -27 19 -68 23 -90 5 -22 23 -100 40 -173 17 -73 31 -137 31 -142 0 -4
-11 -10 -25 -12 -21 -4 -26 -1 -31 21 -10 45 -64 253 -80 311 -9 30 -21 74
-27 98 -6 23 -14 42 -19 42 -12 0 -12 -1 41 -190 28 -96 53 -198 57 -226 8
-65 -11 -83 -20 -19 -4 24 -23 90 -41 146 -49 145 -87 289 -81 305 6 16 -10
19 -19 4 -7 -11 20 -112 76 -287 21 -67 39 -129 39 -137 0 -9 -11 -23 -25 -32
-14 -9 -22 -20 -19 -25 3 -5 -2 -6 -11 -3 -9 4 -15 3 -13 -2 2 -5 -47 -56
-107 -114 -61 -57 -123 -120 -139 -138 -16 -18 -38 -38 -48 -43 -16 -9 -14 -3
8 33 14 24 34 52 43 63 16 20 16 20 -6 2 -20 -18 -113 -149 -113 -161 0 -3 6
-3 14 0 26 10 -13 -96 -59 -161 -23 -33 -46 -70 -49 -82 -11 -36 -24 -26 -20
15 4 27 2 33 -5 21 -6 -8 -13 -57 -17 -108 -6 -78 -13 -104 -43 -164 -19 -40
-35 -76 -36 -82 -2 -30 -84 -81 -112 -71 -16 6 -16 6 3 -62 5 -18 3 -21 -10
-16 -9 3 -16 10 -16 15 0 4 -10 13 -21 20 -12 6 -19 7 -15 1 10 -16 -23 -37
-36 -24 -21 21 -30 13 -26 -19 l5 -31 -18 23 c-10 13 -19 27 -19 32 0 16 -20
6 -20 -11 0 -14 -27 -32 -102 -67 -57 -26 -166 -82 -243 -123 -77 -41 -221
-118 -320 -170 -99 -53 -216 -115 -260 -138 -88 -48 -95 -50 -95 -31 0 17 114
83 410 240 58 30 143 76 190 101 47 25 138 74 203 108 111 60 135 78 102 78
-8 0 -15 -4 -15 -8 0 -11 -46 -32 -68 -32 -10 1 -5 6 13 14 24 10 26 13 12 19
-10 4 -26 1 -37 -5 -10 -7 -23 -9 -27 -4 -4 4 0 12 10 17 27 16 21 32 -11 25
-22 -5 -24 -4 -9 4 23 15 7 45 -28 54 -14 4 -25 11 -25 17 0 6 -9 8 -20 4 -16
-5 -20 -2 -20 16 0 18 -3 19 -15 9 -19 -15 -40 -3 -25 15 16 19 -32 47 -67 39
-27 -7 -27 -7 -10 10 14 15 15 21 5 33 -6 8 -22 13 -35 10 -15 -3 -24 1 -28
13 -3 9 -17 23 -30 30 -17 9 -25 22 -25 39 -1 23 -2 24 -11 9 -13 -23 -27 -23
-31 -1 -2 9 -19 22 -38 28 -19 6 -35 17 -35 24 0 6 -7 16 -15 22 -11 8 -12 12
-3 16 24 9 13 22 -22 29 -31 5 -33 8 -19 18 14 11 12 16 -19 43 -19 17 -41 33
-49 37 -10 5 -10 7 0 12 16 7 16 24 0 24 -17 1 -58 35 -58 48 0 5 -11 13 -25
16 -14 4 -26 13 -26 21 -1 8 -2 21 -3 28 0 6 -13 13 -28 15 -26 3 -41 22 -18
22 17 0 11 14 -18 45 -15 16 -28 33 -28 37 -1 5 -3 11 -4 16 -1 4 -2 10 -1 15
0 4 -6 7 -14 7 -8 0 -15 -6 -16 -12 0 -7 -5 -3 -11 10 -6 12 -15 22 -20 22 -4
0 -8 4 -8 10 0 5 7 7 15 4 26 -10 16 13 -21 50 -20 20 -33 36 -29 36 3 0 -8
15 -24 33 -17 17 -31 40 -31 49 0 22 -39 88 -52 88 -6 0 -7 7 -4 17 4 10 -2
25 -14 38 -12 13 -21 29 -20 36 5 30 -1 40 -27 50 -16 7 -23 13 -15 16 20 8
14 23 -10 23 -17 0 -19 3 -9 9 11 7 10 11 -5 20 -17 9 -17 10 -1 11 9 0 17 7
17 15 0 8 -9 15 -20 15 -13 0 -20 7 -20 20 0 12 -7 20 -16 20 -12 0 -14 7 -9
30 4 18 3 30 -4 30 -6 0 -8 7 -5 15 4 8 1 15 -5 15 -6 0 -11 9 -11 20 0 11 -3
19 -7 19 -21 -3 -22 3 -7 26 13 20 14 24 2 20 -19 -8 -44 23 -52 64 -5 27 -3
32 9 27 17 -6 19 2 7 22 -5 7 -17 10 -28 6 -14 -4 -15 -3 -5 4 7 5 9 12 4 15
-5 4 -9 33 -8 67 1 46 -2 60 -13 60 -8 0 -12 6 -8 15 3 8 -2 18 -10 23 -14 8
-14 12 -3 30 9 15 10 24 2 34 -6 7 -10 28 -8 46 1 17 -2 32 -7 32 -5 0 -7 4
-3 9 3 5 1 12 -4 16 -6 3 -8 12 -4 20 3 8 0 15 -6 15 -18 0 -13 18 7 23 15 4
15 5 0 6 -14 1 -16 10 -13 58 2 31 1 62 -3 67 -3 6 -7 27 -8 46 0 19 -5 52 -9
73 -7 34 -6 37 11 30 16 -6 17 -4 7 8 -7 8 -9 25 -6 38 4 14 1 26 -8 31 -10 7
-11 14 -2 32 6 13 14 32 17 42 5 15 4 17 -7 8 -8 -7 -16 -9 -20 -6 -7 8 3 37
17 46 7 5 4 8 -6 8 -10 0 -18 7 -18 15 0 8 7 15 17 15 14 0 14 2 -2 20 -17 19
-17 20 0 20 12 0 15 5 10 18 -7 15 -7 41 -1 147 3 41 17 95 26 95 3 0 5 14 2
30 -3 21 0 30 9 31 9 0 7 3 -4 7 -17 7 -17 8 1 27 10 11 21 29 25 40 7 19 7
19 -8 1 -13 -17 -14 -15 -8 20 4 21 12 45 20 52 16 17 16 24 1 41 -10 11 -10
14 0 18 6 3 12 18 12 34 0 20 5 29 16 29 13 0 14 3 5 14 -12 15 3 75 23 88 6
4 11 15 12 25 1 10 4 34 8 53 5 26 4 31 -3 20 -6 -8 -11 -10 -11 -4 0 17 22
33 38 27 12 -5 14 -1 8 20 -3 15 -2 35 3 44 5 10 15 33 22 51 6 18 14 30 17
27 10 -9 32 48 26 68 -4 13 -2 17 5 13 6 -4 12 0 12 8 2 22 3 25 24 71 10 22
20 46 21 54 2 8 8 17 14 21 7 4 17 17 23 28 7 11 24 42 39 68 30 51 33 58 18
49 -6 -3 -7 1 -4 9 3 9 10 13 15 11 5 -3 11 6 15 20 3 14 11 22 17 18 7 -4 8
0 3 13 -4 10 -4 15 0 11 4 -4 27 23 52 61 92 137 206 285 306 393 28 31 58 65
67 75 28 31 149 138 229 201 138 108 209 163 214 163 2 0 31 18 65 41 137 91
420 230 561 275 30 9 60 20 65 24 9 7 66 24 235 68 90 24 252 56 375 73 123
18 563 18 680 1 256 -38 518 -98 665 -153 30 -11 80 -30 110 -41 200 -74 564
-275 652 -360 10 -10 21 -18 26 -18 4 0 25 -15 47 -34 22 -19 42 -33 46 -30 4
2 9 -2 12 -9 3 -7 38 -40 78 -72 41 -33 98 -83 126 -112 29 -29 57 -53 63 -53
6 0 9 -4 6 -8 -6 -10 53 -66 79 -76 9 -3 14 -10 10 -15 -3 -6 3 -15 14 -20 11
-6 23 -20 26 -31 3 -11 13 -20 20 -20 9 0 12 -6 8 -16 -4 -10 2 -17 16 -21 12
-3 20 -11 18 -17 -3 -6 8 -24 22 -39 15 -15 34 -39 42 -54 7 -16 26 -41 41
-58 37 -42 97 -126 104 -147 4 -10 10 -18 14 -18 5 0 13 -12 19 -27 6 -16 19
-41 29 -58 11 -16 24 -47 31 -67 7 -21 16 -38 20 -38 12 0 32 -50 25 -62 -4
-7 -2 -8 4 -4 8 5 12 -1 12 -16 1 -25 23 -61 33 -52 3 3 3 -4 0 -17 -4 -14 -2
-20 5 -15 6 3 13 2 17 -4 3 -5 1 -10 -4 -10 -6 0 -11 -4 -11 -10 0 -5 7 -10
15 -10 9 0 12 -6 9 -15 -4 -8 -1 -15 5 -15 6 0 11 -11 11 -24 0 -14 4 -27 9
-31 5 -3 12 -19 16 -36 4 -17 13 -42 21 -57 8 -15 14 -37 14 -50 0 -13 7 -30
15 -39 9 -8 13 -23 10 -33 -3 -10 -1 -21 4 -24 5 -4 16 -20 25 -36 12 -26 12
-30 0 -30 -8 0 -14 -4 -14 -10 0 -5 5 -10 10 -10 6 0 10 -4 10 -9 0 -5 5 -22
12 -38 7 -15 13 -32 14 -38 1 -5 3 -12 4 -15 1 -3 4 -22 6 -44 1 -21 10 -46
18 -55 10 -11 13 -28 10 -46 -3 -15 0 -31 5 -34 6 -4 12 -34 13 -66 2 -33 7
-63 12 -67 6 -3 11 -51 12 -106 1 -55 8 -110 14 -122 9 -18 9 -24 0 -30 -7 -5
-10 -16 -6 -25 3 -10 1 -24 -5 -31 -9 -11 -8 -14 1 -14 9 0 11 -9 7 -30 -5
-20 -3 -30 6 -30 8 0 7 -4 -3 -10 -8 -5 -10 -10 -5 -10 6 0 5 -4 -2 -8 -14 -9
-6 -52 10 -52 5 0 2 -9 -8 -20 -10 -11 -13 -20 -7 -20 7 0 12 -9 12 -19 0 -11
4 -23 10 -26 6 -4 5 -13 -2 -25 -10 -15 -9 -22 5 -38 9 -10 17 -24 17 -31 0
-8 6 -11 15 -7 8 3 15 1 15 -4 0 -6 -12 -10 -26 -10 -14 0 -23 -4 -20 -9 4 -5
0 -12 -6 -14 -10 -4 -10 -6 -1 -6 7 -1 161 73 343 164 l330 165 0 1705 0 1705
-3680 0 -3680 0 0 -3044z m2807 1992 c2 -17 0 -19 -7 -8 -5 8 -6 18 -4 22 8
12 10 10 11 -14z m-177 -663 c-7 -25 -15 -43 -18 -41 -3 3 1 26 8 51 7 25 15
43 18 41 3 -3 -1 -26 -8 -51z m-150 -205 c0 -5 -2 -10 -4 -10 -3 0 -8 5 -11
10 -3 6 -1 10 4 10 6 0 11 -4 11 -10z m-270 -58 c0 -15 -2 -15 -10 -2 -13 20
-13 33 0 25 6 -3 10 -14 10 -23z m955 -72 l-40 -7 40 -2 c37 -2 38 -3 16 -12
-17 -7 -34 -6 -54 2 -37 15 -18 29 38 27 l40 -1 -40 -7z m105 0 c0 -5 -7 -10
-16 -10 -8 0 -12 5 -9 10 3 6 10 10 16 10 5 0 9 -4 9 -10z m-190 -10 c0 -5 -7
-10 -16 -10 -8 0 -12 5 -9 10 3 6 10 10 16 10 5 0 9 -4 9 -10z m255 -10 c3 -5
1 -10 -4 -10 -6 0 -11 5 -11 10 0 6 2 10 4 10 3 0 8 -4 11 -10z m-80 -41 c-6
-19 -4 -21 19 -15 19 5 26 3 26 -9 0 -8 -6 -15 -12 -15 -7 -1 -3 -9 10 -19 12
-11 22 -26 22 -35 0 -9 5 -16 10 -16 6 0 10 9 10 20 0 11 4 20 9 20 16 0 24
-21 13 -32 -6 -6 -8 -16 -6 -23 3 -7 1 -16 -5 -20 -6 -3 -11 -14 -11 -24 0
-10 -13 -34 -30 -52 -16 -19 -30 -38 -30 -42 0 -5 -4 -5 -10 -2 -5 3 -10 0
-10 -8 0 -8 -16 -29 -37 -46 -28 -24 -32 -31 -17 -31 21 0 71 28 126 72 20 15
39 24 42 19 4 -5 -2 -12 -13 -16 -43 -13 -44 -32 -4 -70 22 -21 39 -31 42 -24
2 7 -8 21 -23 31 -14 11 -26 26 -26 33 0 17 37 26 66 15 18 -7 24 -6 24 5 0 7
5 17 10 20 6 4 10 -7 10 -25 0 -17 -4 -29 -8 -26 -5 3 -8 -13 -8 -36 1 -28 -4
-42 -14 -46 -12 -4 -13 -2 -2 9 17 19 15 33 -3 15 -8 -8 -12 -22 -9 -30 4 -10
1 -16 -9 -16 -9 0 -22 -3 -31 -6 -9 -3 -16 -1 -16 5 0 6 7 11 17 11 9 0 14 3
10 6 -9 9 -48 -6 -42 -17 4 -5 -1 -9 -9 -9 -22 0 -20 26 2 36 9 4 21 6 25 5 4
-1 3 8 -3 19 -12 23 -41 40 -67 40 -14 0 -13 -4 8 -18 27 -18 28 -42 3 -42 -9
0 -13 -4 -10 -8 3 -5 -17 -15 -44 -22 -28 -8 -50 -16 -50 -20 0 -3 -16 -12
-36 -19 -26 -9 -39 -10 -47 -2 -8 8 -4 11 16 11 15 0 27 5 27 10 0 6 9 10 20
10 11 0 20 5 20 10 0 6 9 10 20 10 11 0 20 7 20 15 0 8 -4 15 -9 15 -5 0 -14
-7 -21 -15 -7 -9 -29 -15 -52 -15 -35 0 -39 -2 -28 -15 11 -13 8 -14 -21 -9
-44 9 -46 11 -23 29 10 8 38 15 61 15 33 0 41 3 39 17 -2 9 -12 20 -23 24 -17
6 -20 4 -16 -11 4 -14 0 -17 -21 -13 -14 3 -26 12 -26 19 0 8 -4 14 -10 14
-11 0 -14 30 -2 30 14 1 42 49 36 64 -5 12 -10 13 -25 5 -14 -7 -17 -14 -10
-26 6 -12 3 -21 -13 -34 -20 -17 -20 -19 -5 -45 15 -25 15 -28 -4 -47 -16 -16
-23 -18 -39 -8 -20 12 -68 5 -68 -11 0 -5 -4 -7 -9 -3 -5 3 2 17 16 31 24 24
26 25 45 7 16 -15 21 -15 28 -3 11 17 13 47 3 37 -3 -4 -12 -2 -19 4 -8 6 -20
9 -29 6 -21 -9 -27 7 -9 29 11 14 17 15 20 7 7 -15 34 -17 34 -3 0 6 7 10 15
10 8 0 15 7 15 15 0 20 -17 19 -28 0 -5 -10 -15 -13 -25 -9 -23 9 -21 24 3 24
26 0 25 8 -2 38 l-23 25 25 -13 c31 -17 70 -22 70 -9 0 5 -6 9 -12 9 -7 0 -2
6 12 13 14 7 27 21 29 32 7 37 51 49 51 14 0 -16 -4 -19 -21 -14 -21 7 -22 5
-16 -30 8 -49 11 -51 41 -28 23 16 25 23 19 71 -4 40 -3 52 8 53 47 5 75 3 81
-6 10 -14 20 -1 12 18 -3 9 -12 13 -21 10 -13 -5 -15 -2 -10 16 5 20 3 22 -21
17 -15 -3 -21 -3 -14 0 20 9 14 21 -13 28 -14 4 -23 11 -20 17 4 5 15 7 26 4
11 -4 19 -2 19 4 0 6 5 11 11 11 6 0 8 -9 4 -21z m-95 -3 c0 -3 -4 -8 -10 -11
-5 -3 -10 -1 -10 4 0 6 5 11 10 11 6 0 10 -2 10 -4z m60 -66 c0 -5 -4 -10 -10
-10 -5 0 -10 5 -10 10 0 6 5 10 10 10 6 0 10 -4 10 -10z m-658 -47 c-52 -102
-79 -233 -87 -418 -5 -99 -5 -100 -31 -103 l-26 -4 7 79 c17 212 71 405 133
476 24 27 25 13 4 -30z m468 -43 c0 -5 -7 -10 -15 -10 -8 0 -15 5 -15 10 0 6
7 10 15 10 8 0 15 -4 15 -10z m70 0 c0 -5 -6 -10 -14 -10 -8 0 -18 5 -21 10
-3 6 3 10 14 10 12 0 21 -4 21 -10z m548 -50 c-7 -10 -14 -18 -15 -16 -6 6 9
36 18 36 5 0 4 -9 -3 -20z m-688 -30 c0 -5 -7 -10 -15 -10 -8 0 -15 5 -15 10
0 6 7 10 15 10 8 0 15 -4 15 -10z m40 6 c0 -3 -4 -8 -10 -11 -5 -3 -10 -1 -10
4 0 6 5 11 10 11 6 0 10 -2 10 -4z m420 -35 c-1 -13 -3 -13 -15 3 -19 26 -19
42 0 26 8 -7 15 -20 15 -29z m223 3 c4 10 10 17 13 14 2 -3 0 -17 -5 -32 -9
-22 -8 -26 9 -26 16 0 18 5 14 37 -2 20 -2 34 1 31 11 -10 36 -123 31 -140 -2
-10 0 -18 5 -18 5 0 9 -5 9 -11 0 -7 -12 -9 -32 -5 -18 3 -66 6 -105 7 -74 2
-92 12 -49 29 16 6 36 32 57 76 29 59 34 64 39 43 5 -22 7 -22 13 -5z m-798 6
c3 -5 1 -10 -4 -10 -6 0 -11 5 -11 10 0 6 2 10 4 10 3 0 8 -4 11 -10z m130
-20 c3 -5 1 -10 -4 -10 -6 0 -11 5 -11 10 0 6 2 10 4 10 3 0 8 -4 11 -10z
m-20 -30 c3 -5 -3 -10 -14 -10 -12 0 -21 5 -21 10 0 6 6 10 14 10 8 0 18 -4
21 -10z m5 -50 c0 -5 -4 -10 -10 -10 -5 0 -10 5 -10 10 0 6 5 10 10 10 6 0 10
-4 10 -10z m-120 -40 c0 -5 -5 -10 -11 -10 -5 0 -7 5 -4 10 3 6 8 10 11 10 2
0 4 -4 4 -10z m-572 -48 c-6 -16 -17 -29 -24 -29 -11 0 -5 30 12 59 12 19 21
-4 12 -30z m752 18 c0 -5 -9 -10 -20 -10 -11 0 -20 5 -20 10 0 6 9 10 20 10
11 0 20 -4 20 -10z m289 -4 c-9 -8 -153 -55 -157 -51 -5 5 -2 7 78 34 52 18
88 26 79 17z m-354 -15 c3 -6 -10 -7 -32 -4 -50 8 -55 13 -10 13 20 0 38 -4
42 -9z m98 3 c-7 -3 -9 -13 -6 -22 4 -14 3 -14 -5 -2 -12 16 -7 30 11 29 9 0
9 -2 0 -5z m586 2 c-7 -7 -129 -10 -136 -3 -3 4 27 7 67 7 40 0 71 -2 69 -4z
m71 -16 c0 -5 -7 -7 -15 -4 -8 4 -15 8 -15 10 0 2 7 4 15 4 8 0 15 -4 15 -10z
m-880 -20 c0 -5 -5 -10 -11 -10 -5 0 -7 5 -4 10 3 6 8 10 11 10 2 0 4 -4 4
-10z m110 0 c0 -5 -7 -10 -16 -10 -8 0 -12 5 -9 10 3 6 10 10 16 10 5 0 9 -4
9 -10z m80 0 c0 -5 -4 -10 -10 -10 -5 0 -10 5 -10 10 0 6 5 10 10 10 6 0 10
-4 10 -10z m114 -9 c7 -11 -52 -36 -61 -27 -4 4 3 9 15 13 12 3 22 9 22 14 0
12 17 12 24 0z m555 -8 c0 -10 -3 -13 -5 -6 -3 7 -13 9 -22 6 -15 -4 -15 -3
-2 6 22 15 30 14 29 -6z m-3564 -3 c3 -5 1 -10 -4 -10 -6 0 -11 5 -11 10 0 6
2 10 4 10 3 0 8 -4 11 -10z m2705 -30 c0 -5 -4 -10 -9 -10 -6 0 -13 5 -16 10
-3 6 1 10 9 10 9 0 16 -4 16 -10z m830 -18 c0 -8 -3 -12 -7 -9 -3 4 -13 1 -22
-6 -14 -10 -14 -10 -3 5 8 9 11 22 7 27 -3 7 0 8 9 5 9 -3 16 -13 16 -22z
m113 15 c-3 -5 0 -13 6 -17 7 -4 15 -33 18 -65 6 -55 5 -58 -13 -51 -10 5 -40
14 -66 22 -27 8 -48 21 -48 28 0 17 25 38 34 29 4 -4 4 0 1 9 -5 13 -1 16 18
14 20 -2 23 1 19 20 -3 18 0 23 16 21 11 0 18 -5 15 -10z m-836 -3 c-3 -3 -12
-4 -19 -1 -8 3 -5 6 6 6 11 1 17 -2 13 -5z m88 -4 c-3 -5 -16 -15 -28 -21 -21
-10 -21 -9 2 10 25 23 36 27 26 11z m-141 -42 c-5 -8 0 -9 17 -4 13 4 35 10
49 12 22 4 22 3 -5 -10 -64 -29 -128 -26 -77 3 22 13 25 13 16 -1z m-64 -8 c0
-5 -2 -10 -4 -10 -3 0 -8 5 -11 10 -3 6 -1 10 4 10 6 0 11 -4 11 -10z m896
-81 c8 -14 -10 -11 -32 6 -18 13 -18 14 4 8 12 -3 25 -9 28 -14z m-1252 -21
c8 -13 17 -41 21 -63 4 -22 11 -55 17 -73 13 -42 4 -69 -17 -52 -16 13 -65
158 -65 191 0 26 26 24 44 -3z m1293 6 c-3 -3 -12 -4 -19 -1 -8 3 -5 6 6 6 11
1 17 -2 13 -5z m-797 -64 c0 -5 -2 -10 -4 -10 -3 0 -8 5 -11 10 -3 6 -1 10 4
10 6 0 11 -4 11 -10z m-185 -20 c-3 -5 -12 -10 -18 -10 -7 0 -6 4 3 10 19 12
23 12 15 0z m258 -63 c-25 -54 -42 -47 -27 10 5 17 30 34 41 28 1 -1 -5 -18
-14 -38z m-253 2 c0 -6 -4 -7 -10 -4 -5 3 -10 11 -10 16 0 6 5 7 10 4 6 -3 10
-11 10 -16z m4500 1 c0 -5 -4 -10 -10 -10 -5 0 -10 5 -10 10 0 6 5 10 10 10 6
0 10 -4 10 -10z m-2906 -27 c14 -14 25 -27 24 -29 -2 -1 -25 4 -53 11 -27 8
-45 14 -40 14 11 1 -15 21 -27 21 -5 0 -8 -7 -8 -16 0 -8 -4 -12 -10 -9 -5 3
-10 13 -10 21 0 10 13 14 49 14 39 0 53 -5 75 -27z m-1548 -39 c2 -23 1 -24
-11 -7 -10 13 -10 20 -2 25 7 4 12 8 12 8 0 0 1 -11 1 -26z m704 -6 c0 7 5 10
10 7 18 -11 11 -45 -9 -45 -24 0 -33 13 -25 35 5 13 8 14 15 3 7 -10 9 -11 9
0z m-1016 -7 c7 -10 -23 -20 -41 -14 -7 3 -13 9 -13 14 0 12 47 12 54 0z m663
-13 c-3 -8 -6 -5 -6 6 -1 11 2 17 5 13 3 -3 4 -12 1 -19z m-317 -2 c0 -3 -4
-8 -10 -11 -5 -3 -10 -1 -10 4 0 6 5 11 10 11 6 0 10 -2 10 -4z m1552 -5 c3 8
9 10 14 5 5 -5 4 -11 -3 -13 -23 -8 -14 -25 9 -17 21 6 21 6 5 -11 -20 -19
-19 -19 -36 12 -13 25 -15 44 -2 24 7 -11 9 -11 13 0z m-802 -22 c0 -5 5 -7
10 -4 23 14 7 -15 -21 -39 -26 -22 -37 -25 -72 -20 -56 8 -67 12 -67 24 0 5
16 10 35 10 19 0 35 3 35 8 0 9 40 29 63 31 9 0 17 -4 17 -10z m-1089 -31 c11
-21 11 -22 -4 -9 -10 7 -17 17 -17 22 0 15 9 10 21 -13z m91 -19 c8 -22 13
-27 19 -18 12 20 23 3 25 -41 2 -37 14 -69 44 -117 18 -28 7 -39 -24 -25 -48
22 -120 232 -79 232 2 0 9 -14 15 -31z m1723 -16 c22 -22 37 -62 30 -83 -3 -9
-18 -29 -34 -44 l-28 -27 4 48 c7 74 4 97 -14 111 -15 11 -15 12 4 12 12 0 29
-7 38 -17z m83 -38 c-10 -22 -10 -29 -1 -32 9 -3 9 -10 1 -28 -6 -14 -15 -22
-19 -19 -14 8 -11 -20 3 -34 8 -8 8 -12 1 -12 -6 0 -14 7 -17 16 -4 9 -13 14
-21 10 -8 -3 -15 -3 -15 -1 0 8 24 49 31 55 4 3 14 23 23 44 9 22 19 37 22 34
2 -3 -1 -18 -8 -33z m55 4 c-4 -12 -13 -36 -22 -55 l-16 -32 -2 44 c-1 27 2
42 8 38 6 -3 13 3 16 15 3 11 9 19 13 16 5 -3 6 -15 3 -26z m-1633 -11 c0 -19
-2 -20 -10 -8 -13 19 -13 30 0 30 6 0 10 -10 10 -22z m-113 -49 c7 -13 14 -28
17 -34 2 -6 9 -5 17 3 10 9 10 15 1 24 -7 7 -12 18 -12 25 0 8 14 -2 31 -21
17 -20 28 -40 24 -45 -11 -19 -68 -55 -63 -40 2 7 -8 34 -24 58 -15 25 -28 49
-28 54 0 16 25 1 37 -24z m797 -48 c3 -4 -6 -6 -19 -3 -14 2 -25 6 -25 8 0 8
39 4 44 -5z m856 -12 c0 -5 -4 -9 -10 -9 -5 0 -10 -9 -10 -20 0 -11 5 -20 11
-20 5 0 7 -5 4 -10 -5 -8 -11 -7 -21 1 -17 14 -23 10 -29 -19 -2 -15 0 -19 11
-15 7 3 11 10 7 16 -4 6 -1 7 6 3 9 -6 8 -13 -5 -27 -9 -10 -21 -16 -25 -13
-5 3 -9 -2 -9 -10 0 -9 -4 -16 -10 -16 -5 0 -10 9 -10 20 0 11 -4 20 -10 20
-5 0 -10 -14 -10 -31 0 -20 4 -28 12 -23 6 4 3 -4 -8 -18 -10 -14 -21 -24 -23
-22 -2 2 2 10 9 19 10 12 10 15 -2 15 -7 0 -21 9 -31 20 -9 11 -27 20 -39 20
-22 0 -21 1 6 19 17 11 34 18 38 15 5 -3 7 -1 6 4 -4 14 95 87 121 89 11 1 21
-2 21 -8z m20 -23 c0 -3 -4 -8 -10 -11 -5 -3 -10 -1 -10 4 0 6 5 11 10 11 6 0
10 -2 10 -4z m-191 -166 c0 -10 -3 -8 -9 5 -12 27 -12 43 0 25 5 -8 9 -22 9
-30z m-94 -20 c-5 -15 -3 -18 9 -14 9 3 16 1 16 -5 0 -6 -9 -11 -20 -11 -15 0
-20 7 -20 25 0 14 5 25 11 25 6 0 8 -9 4 -20z m62 -22 c-3 -7 -5 -2 -5 12 0
14 2 19 5 13 2 -7 2 -19 0 -25z m-131 -2 c-13 -74 -16 -134 -8 -157 6 -14 36
-55 66 -90 31 -35 68 -88 83 -117 22 -46 25 -61 21 -123 -3 -39 -11 -76 -17
-82 -8 -8 -11 -8 -11 2 0 15 -25 41 -39 41 -6 0 -11 -12 -11 -27 -1 -43 -33
-104 -79 -148 -46 -44 -50 -42 -20 9 41 69 23 134 -68 248 -32 42 -65 136 -69
203 -5 80 -10 116 -18 140 l-7 20 16 -20 c8 -11 32 -45 53 -76 40 -61 90 -120
113 -134 16 -11 -8 29 -53 86 -34 44 -68 116 -67 144 0 19 1 19 8 1 7 -19 8
-19 14 -1 7 17 8 17 27 0 13 -11 20 -14 20 -6 0 14 41 111 46 111 3 0 2 -11 0
-24z m-1189 -8 c-3 -8 -6 -5 -6 6 -1 11 2 17 5 13 3 -3 4 -12 1 -19z m71 -134
c16 5 19 1 20 -28 1 -30 -2 -34 -30 -40 -33 -7 -52 0 -24 9 9 3 23 7 32 10 22
7 7 25 -21 25 -18 0 -23 -4 -19 -15 4 -8 1 -15 -5 -15 -15 0 -14 37 0 42 8 3
9 10 2 23 -6 11 -8 26 -5 34 3 9 10 2 18 -18 10 -25 18 -31 32 -27z m923 9
c-12 -20 -14 -14 -5 12 4 9 9 14 11 11 3 -2 0 -13 -6 -23z m-1011 -3 c0 -5 -2
-10 -4 -10 -3 0 -8 5 -11 10 -3 6 -1 10 4 10 6 0 11 -4 11 -10z m1386 -17 c-8
-8 -36 5 -36 17 0 7 6 7 21 0 11 -7 18 -14 15 -17z m44 -18 c-7 -8 -16 -15
-21 -15 -5 0 -1 8 9 18 20 22 31 19 12 -3z m2507 -1 c-3 -3 -12 -4 -19 -1 -8
3 -5 6 6 6 11 1 17 -2 13 -5z m-2535 -118 c68 -45 77 -170 17 -254 -42 -58
-99 -122 -111 -122 -12 0 19 57 37 67 21 12 45 89 45 147 0 38 -9 70 -34 123
l-34 71 28 -8 c15 -4 39 -15 52 -24z m183 -138 c8 -26 10 -326 1 -311 -5 9
-10 54 -11 102 -2 47 -3 92 -4 99 -1 8 -19 12 -56 12 -30 0 -55 5 -55 10 0 6
11 10 24 10 14 0 28 5 31 10 3 6 -3 10 -14 10 -12 0 -21 5 -21 10 0 6 20 10
45 10 25 0 45 5 45 10 0 6 -20 10 -45 10 -42 0 -54 7 -38 23 12 12 93 8 98 -5z
m-1896 -78 c0 -10 -3 -8 -9 5 -12 27 -12 43 0 25 5 -8 9 -22 9 -30z m4031 -80
c0 -5 -4 -10 -10 -10 -5 0 -10 5 -10 10 0 6 5 10 10 10 6 0 10 -4 10 -10z
m-3179 -27 c0 -5 3 -21 5 -38 6 -36 1 -31 -14 13 -7 19 -7 32 -1 32 5 0 9 -3
10 -7z m1250 -285 c131 -134 207 -239 286 -393 51 -100 127 -307 121 -327 -5
-14 -228 364 -228 386 0 18 -72 126 -81 121 -5 -4 -6 0 -4 7 8 20 -61 96 -122
135 -29 18 -89 45 -133 60 -44 14 -80 30 -80 34 0 4 23 16 51 27 29 10 48 22
43 25 -6 3 -61 9 -123 13 -103 6 -127 15 -76 27 11 3 66 5 123 6 l104 1 119
-122z m1315 87 c-11 -8 -25 -15 -30 -15 -6 1 0 7 14 15 32 19 40 18 16 0z
m-101 -55 c-3 -5 -12 -10 -18 -10 -7 0 -6 4 3 10 19 12 23 12 15 0z m640 -10
c-3 -5 -12 -10 -18 -10 -7 0 -6 4 3 10 19 12 23 12 15 0z m-6355 -166 c0 -8
-7 -14 -15 -14 -15 0 -21 21 -9 33 10 9 24 -2 24 -19z m5240 -78 c0 -6 -87
-56 -97 -56 -4 0 15 14 42 30 53 31 55 32 55 26z m-120 -70 c0 -2 -7 -7 -16
-10 -8 -3 -12 -2 -9 4 6 10 25 14 25 6z m-45 -25 c-6 -5 -41 -26 -80 -46 -38
-21 -89 -51 -113 -68 -24 -16 -46 -26 -49 -23 -9 9 -6 11 123 81 118 64 137
73 119 56z m1985 -19 c0 -10 -3 -22 -7 -25 -10 -11 -32 13 -26 29 8 20 33 17
33 -4z m-4077 -162 c-59 -63 -70 -72 -54 -42 15 28 87 102 99 102 7 0 -14 -27
-45 -60z m103 -120 c-6 -38 -45 -80 -76 -80 -12 0 -22 12 -30 35 -21 65 29
117 88 91 21 -9 23 -15 18 -46z m3319 -69 c3 -5 1 -12 -5 -16 -5 -3 -10 1 -10
9 0 18 6 21 15 7z m-3160 -46 c-9 -20 -14 -43 -11 -51 3 -7 -1 -35 -9 -61 -8
-27 -15 -62 -17 -80 -1 -17 -5 -30 -9 -28 -5 4 -56 -151 -77 -235 -9 -37 -9
-37 -78 -24 -28 6 -31 3 -48 -38 -9 -23 -21 -83 -26 -133 -6 -49 -13 -101 -16
-115 -3 -14 -7 -167 -9 -340 -2 -299 -8 -390 -25 -390 -8 0 -20 223 -20 374 0
201 47 575 90 713 48 156 140 325 205 376 20 16 41 40 47 53 18 39 20 21 3
-21z m-572 -10 c-3 -9 -8 -14 -10 -11 -3 3 -2 9 2 15 9 16 15 13 8 -4z m524
-267 c-3 -7 -5 -2 -5 12 0 14 2 19 5 13 2 -7 2 -19 0 -25z m3908 -127 c-3 -6
-11 -8 -17 -5 -6 4 -5 9 3 15 16 10 23 4 14 -10z m50 9 c-3 -5 -10 -10 -16
-10 -5 0 -9 5 -9 10 0 6 7 10 16 10 8 0 12 -4 9 -10z m-155 -50 c0 -5 -15 -10
-32 -10 -25 0 -29 3 -18 10 20 13 50 13 50 0z m85 -30 c7 -12 -12 -12 -40 0
-18 8 -17 9 7 9 15 1 30 -3 33 -9z m-1527 -75 c-3 -3 -13 -2 -22 1 -14 5 -15
9 -4 15 13 8 36 -6 26 -16z m-2873 -1 c25 -25 2 -114 -35 -134 -60 -32 -86 66
-31 121 34 33 43 35 66 13z m2946 -71 c13 -16 12 -17 -3 -4 -10 7 -18 15 -18
17 0 8 8 3 21 -13z m-3771 -73 c-19 -13 -30 -13 -30 0 0 6 10 10 23 10 18 0
19 -2 7 -10z m425 -201 c-7 -10 -35 -1 -35 11 0 5 9 6 20 3 11 -3 17 -9 15
-14z m3722 -5 c-7 -7 -37 7 -37 17 0 6 9 5 21 -1 11 -7 19 -14 16 -16z m-3787
-28 c0 -2 -7 -7 -16 -10 -8 -3 -12 -2 -9 4 6 10 25 14 25 6z m-50 -21 c0 -6
-56 -35 -67 -35 -4 1 8 9 27 20 39 22 40 22 40 15z m-280 -14 c0 -6 -4 -13
-10 -16 -5 -3 -10 1 -10 9 0 9 5 16 10 16 6 0 10 -4 10 -9z m200 -26 c0 -3
-39 -25 -87 -50 -49 -25 -128 -68 -178 -96 -130 -73 -342 -183 -330 -171 6 5
132 76 280 156 149 81 277 151 285 156 17 10 30 12 30 5z m-290 -19 c0 -3 -4
-8 -10 -11 -5 -3 -10 -1 -10 4 0 6 5 11 10 11 6 0 10 -2 10 -4z m-30 -21 c0
-8 -4 -15 -10 -15 -5 0 -10 7 -10 15 0 8 5 15 10 15 6 0 10 -7 10 -15z m-867
-11 c36 -17 83 -77 72 -93 -3 -6 1 -11 9 -11 20 0 20 -9 0 -32 -16 -17 -18
-17 -40 9 -13 15 -29 40 -35 56 -9 20 -18 27 -33 25 -17 -2 -22 -12 -26 -48
l-5 -45 -18 26 c-9 14 -18 43 -20 64 -2 33 2 41 23 52 32 16 33 16 73 -3z
m762 -44 c3 -5 1 -10 -4 -10 -6 0 -11 5 -11 10 0 6 2 10 4 10 3 0 8 -4 11 -10z
m-855 -93 c0 -23 -18 9 -24 43 l-7 35 16 -34 c8 -18 15 -38 15 -44z m730 26
c0 -20 -3 -24 -11 -16 -7 7 -9 19 -6 27 10 24 17 19 17 -11z m-1583 -13 c6 0
16 -7 23 -15 7 -8 21 -15 31 -15 11 0 19 -5 19 -11 0 -7 -8 -9 -22 -4 -13 4
-39 8 -58 9 -32 1 -35 3 -36 34 -1 30 0 32 16 17 9 -8 21 -15 27 -15z m953 2
c0 -15 -2 -15 -10 -2 -13 20 -13 33 0 25 6 -3 10 -14 10 -23z m1368 -22 c-1
-5 -30 -31 -63 -57 -56 -45 -80 -80 -114 -163 -8 -20 -9 -15 -5 25 3 28 8 57
11 65 4 8 5 19 4 23 -2 11 53 57 108 89 49 29 65 34 59 18z m4207 0 c3 -5 2
-10 -4 -10 -5 0 -13 5 -16 10 -3 6 -2 10 4 10 5 0 13 -4 16 -10z m-5494 -26
c32 19 32 19 46 0 13 -18 11 -20 -23 -27 -49 -10 -51 -13 -29 -37 23 -26 40
-25 59 2 9 12 17 20 18 17 2 -2 12 -15 23 -29 15 -18 16 -21 3 -11 -15 11 -23
10 -55 -6 l-38 -18 -37 62 c-41 66 -50 94 -18 53 l19 -25 32 19z m1493 10 c30
-29 15 -113 -23 -133 -27 -15 -48 -5 -60 31 -16 44 -14 62 10 92 23 29 50 33
73 10z m-1069 -13 c3 -5 1 -12 -5 -16 -5 -3 -10 1 -10 9 0 18 6 21 15 7z
m-785 -11 c-8 -5 -22 -10 -30 -10 -13 0 -13 1 0 10 8 5 22 10 30 10 13 0 13
-1 0 -10z m50 -10 c0 -5 -7 -7 -15 -4 -8 4 -15 8 -15 10 0 2 7 4 15 4 8 0 15
-4 15 -10z m25 -34 c52 -24 91 -67 81 -91 -2 -7 -28 -24 -55 -37 -28 -12 -50
-27 -48 -33 2 -5 21 -19 43 -30 21 -11 41 -23 44 -27 3 -3 19 -10 35 -14 40
-10 135 -75 161 -110 31 -43 46 -93 33 -113 -8 -13 -9 -12 -4 7 5 17 2 22 -12
23 -10 0 -13 3 -5 6 6 2 12 9 12 14 0 8 -40 50 -91 96 -9 8 -35 14 -58 15 -22
0 -38 4 -35 9 3 5 -4 9 -16 9 -12 0 -19 4 -16 8 7 11 -37 50 -70 62 -26 10
-55 1 -81 -26 -21 -20 -15 -37 25 -84 l37 -45 -33 24 c-51 36 -68 80 -56 142
10 47 9 50 -8 46 -10 -3 -22 2 -28 11 -8 14 -10 14 -9 2 1 -8 -2 -30 -6 -48
-6 -25 -11 -30 -20 -22 -11 9 -12 7 -8 -9 3 -12 1 -21 -5 -21 -16 0 -23 31
-11 47 22 26 2 23 -39 -7 -27 -19 -42 -38 -42 -51 0 -18 -2 -19 -15 -9 -22 18
-27 8 -14 -29 6 -18 9 -35 5 -38 -3 -4 -6 2 -6 12 0 18 -1 18 -16 -1 -15 -18
-15 -18 -10 8 5 23 3 25 -17 20 -12 -3 -25 -9 -28 -14 -3 -5 -19 -10 -36 -11
-24 -2 -29 -6 -25 -21 3 -13 1 -17 -6 -12 -8 4 -12 0 -12 -10 0 -16 -1 -16
-16 2 -15 18 -15 17 -10 -18 2 -21 0 -40 -5 -43 -5 -4 -9 -1 -9 4 0 6 -5 11
-11 11 -5 0 -7 -5 -3 -11 4 -8 0 -7 -15 1 -17 8 -30 8 -57 0 -29 -10 -34 -15
-29 -33 6 -18 2 -17 -20 8 l-26 30 4 -27 c2 -16 0 -28 -5 -28 -6 0 -7 -7 -4
-16 3 -8 2 -13 -3 -10 -13 9 -34 -41 -28 -66 6 -23 6 -23 -9 -3 -23 29 -14
115 17 159 24 36 50 50 100 54 12 2 20 19 28 61 12 60 29 83 69 96 14 4 30 21
38 40 17 41 31 51 37 28 3 -11 5 -8 6 10 0 15 -4 27 -11 27 -6 0 -4 6 7 13 11
9 15 19 10 27 -5 9 -4 11 3 6 7 -4 21 2 33 13 18 16 33 19 95 17 41 -1 68 1
61 6 -9 6 -9 8 0 8 7 0 16 -6 20 -14 14 -24 37 -24 66 0 36 30 69 30 132 0z
m261 -90 c25 -48 43 -90 41 -92 -4 -5 -107 189 -107 202 0 14 17 -14 66 -110z
m-414 82 c-7 -7 -12 -8 -12 -2 0 14 12 26 19 19 2 -3 -1 -11 -7 -17z m1540
-30 c-7 -7 -12 -8 -12 -2 0 14 12 26 19 19 2 -3 -1 -11 -7 -17z m-1277 -6 c-3
-3 -11 0 -18 7 -9 10 -8 11 6 5 10 -3 15 -9 12 -12z m299 -18 c3 -8 2 -12 -4
-9 -6 3 -10 10 -10 16 0 14 7 11 14 -7z m361 6 c-3 -5 -12 -10 -18 -10 -7 0
-6 4 3 10 19 12 23 12 15 0z m-385 -20 c0 -5 -10 -10 -22 -10 -19 0 -20 2 -8
10 19 13 30 13 30 0z m1 -73 c-1 -12 -15 -9 -19 4 -3 6 1 10 8 8 6 -3 11 -8
11 -12z m-886 -17 c-3 -5 -10 -10 -16 -10 -5 0 -9 5 -9 10 0 6 7 10 16 10 8 0
12 -4 9 -10z m1917 -158 c1 -41 -4 -78 -10 -84 -8 -8 -10 -1 -6 25 2 20 1 38
-3 40 -5 3 -30 -15 -56 -39 l-49 -44 34 0 c42 0 61 -12 56 -36 -3 -15 -11 -18
-38 -16 -19 1 -61 3 -93 4 l-59 3 34 29 c165 143 168 146 169 200 1 47 1 49
10 21 6 -16 11 -63 11 -103z m-1555 102 c-3 -3 0 -26 8 -50 16 -53 10 -58 -11
-9 -17 42 -18 65 -2 65 6 0 9 -3 5 -6z m6153 -62 c42 -26 111 -85 106 -90 -3
-2 -29 11 -58 29 -57 36 -60 38 -98 70 l-25 21 25 -7 c14 -4 36 -14 50 -23z
m-6164 -44 c-5 -4 -15 -4 -20 -1 -6 4 -6 8 1 10 6 2 9 14 6 26 -4 20 -3 20 9
-3 9 -16 11 -27 4 -32z m664 -7 c0 -5 -12 -11 -27 -14 -26 -5 -26 -4 -8 9 22
16 35 18 35 5z m815 -1 c-3 -5 -11 -10 -16 -10 -6 0 -7 5 -4 10 3 6 11 10 16
10 6 0 7 -4 4 -10z m-1735 -20 c0 -5 -4 -10 -9 -10 -6 0 -13 5 -16 10 -3 6 1
10 9 10 9 0 16 -4 16 -10z m1689 -17 c-7 -10 -14 -20 -16 -22 -1 -1 -7 0 -13
4 -14 9 6 35 27 35 13 0 13 -3 2 -17z m-50 -18 c27 0 21 -20 -10 -38 -34 -19
-48 -16 -33 6 5 7 2 6 -6 -3 -24 -25 -57 -30 -100 -13 -25 10 -51 13 -74 9
-49 -9 -46 -22 4 -18 29 3 51 -2 82 -21 52 -31 131 -103 148 -136 l12 -24 -34
21 c-19 12 -66 33 -104 48 -84 32 -117 28 -192 -21 -47 -32 -59 -36 -94 -30
-28 5 -38 11 -34 21 4 10 -3 14 -22 15 -16 1 -20 3 -10 6 9 2 20 13 23 23 4
14 14 18 40 16 38 -3 48 8 15 17 -11 3 -20 10 -20 17 0 7 8 9 19 5 12 -3 21 0
25 11 4 10 12 14 22 10 14 -5 15 -4 4 9 -7 9 -10 19 -6 23 4 4 13 -1 20 -10
12 -17 14 -17 30 1 9 10 18 28 19 39 1 15 7 19 32 16 16 -1 38 -3 47 -3 9 -1
23 -7 30 -14 7 -7 23 -16 35 -19 17 -5 21 -2 18 13 -2 12 2 19 11 19 8 0 13
-4 10 -9 -4 -5 3 -7 14 -4 11 3 26 15 32 26 9 17 12 18 22 6 6 -8 17 -14 25
-14z m-632 -7 c-3 -8 -6 -5 -6 6 -1 11 2 17 5 13 3 -3 4 -12 1 -19z m-698 -10
c12 -15 11 -18 -3 -18 -10 0 -16 8 -16 22 0 12 1 19 3 17 1 -2 9 -12 16 -21z
m97 -9 c4 -8 1 -8 -14 0 -12 6 -24 16 -28 22 -4 8 -1 8 14 0 12 -6 24 -16 28
-22z m529 11 c3 -6 -1 -7 -9 -4 -18 7 -21 14 -7 14 6 0 13 -4 16 -10z m410 1
c3 -5 1 -12 -5 -16 -5 -3 -10 1 -10 9 0 18 6 21 15 7z m-1407 -36 c-3 -3 -9 2
-12 12 -6 14 -5 15 5 6 7 -7 10 -15 7 -18z m451 -16 c-13 -25 -17 -24 -15 5 0
14 6 22 13 19 9 -4 10 -10 2 -24z m622 -22 c-8 -8 -11 -5 -11 9 0 27 14 41 18
19 2 -9 -1 -22 -7 -28z m-197 -7 c14 -22 26 -44 26 -49 0 -5 19 -37 43 -71 42
-61 42 -63 42 -148 0 -74 -4 -95 -27 -140 -15 -30 -29 -47 -32 -40 -3 7 -4 4
-1 -7 3 -12 -5 -31 -20 -49 -14 -16 -25 -33 -25 -38 0 -5 -5 -6 -12 -2 -7 4
-8 3 -4 -4 6 -10 -18 -36 -97 -104 -11 -10 -24 -15 -28 -12 -5 3 -9 -1 -9 -8
0 -18 -100 -72 -130 -70 -23 1 -23 0 -6 -9 10 -6 34 -9 53 -6 35 6 113 42 123
57 3 4 17 13 31 21 27 14 64 59 129 156 37 56 50 65 50 34 0 -33 -11 -50 -28
-45 -15 5 -15 4 1 -9 17 -14 14 -47 -4 -47 -5 0 -15 -11 -21 -25 -8 -19 -14
-22 -20 -13 -6 10 -8 10 -8 -1 0 -21 -60 -69 -110 -88 -25 -9 -56 -25 -70 -34
-14 -9 -55 -20 -92 -23 -61 -6 -69 -4 -88 16 -11 12 -30 48 -41 80 -24 66 -37
78 -100 102 -44 16 -95 56 -71 56 6 0 12 -4 14 -9 2 -4 14 -11 28 -15 21 -6
22 -5 7 4 -24 15 -12 30 24 30 19 0 39 -10 56 -26 14 -14 28 -23 31 -20 3 3
12 0 20 -7 9 -7 13 -7 9 -1 -3 6 5 16 19 23 14 6 23 15 19 20 -3 5 0 13 6 17
8 4 9 3 5 -4 -10 -16 2 -15 19 2 8 7 11 16 8 20 -4 3 3 6 15 6 16 0 20 4 15
17 -4 11 -3 14 5 9 7 -4 12 -2 12 4 0 16 26 40 35 32 4 -4 5 -2 3 5 -1 6 15
35 37 63 48 65 48 63 50 180 0 52 5 106 9 118 7 21 12 23 44 17 21 -3 46 -9
57 -12 18 -5 18 -4 3 11 -9 9 -26 16 -39 16 -18 0 -19 2 -9 15 10 12 10 15 -4
15 -9 0 -16 -5 -16 -12 0 -9 -3 -9 -11 -1 -17 17 -3 43 24 43 17 0 32 -12 51
-40z m242 -17 c-10 -26 -18 -8 -9 23 5 21 8 24 11 11 2 -10 1 -25 -2 -34z
m-1256 27 c0 -5 -2 -10 -4 -10 -3 0 -8 5 -11 10 -3 6 -1 10 4 10 6 0 11 -4 11
-10z m1110 -16 c0 -18 10 -18 40 2 l25 17 -20 -21 c-31 -32 -61 -36 -84 -13
-29 29 -26 38 9 33 17 -2 30 -10 30 -18z m-217 -45 c-6 -6 -7 3 -4 23 4 28 6
29 9 9 2 -13 0 -27 -5 -32z m897 41 c0 -5 -2 -10 -4 -10 -3 0 -8 5 -11 10 -3
6 -1 10 4 10 6 0 11 -4 11 -10z m-1640 -35 c-7 -8 -17 -15 -22 -15 -6 0 -5 7
2 15 7 8 17 15 22 15 6 0 5 -7 -2 -15z m1207 -2 c2 -6 -7 -13 -21 -15 -21 -4
-23 -3 -13 14 12 19 28 19 34 1z m-1363 -14 c-3 -5 -10 -7 -15 -3 -5 3 -7 10
-3 15 3 5 10 7 15 3 5 -3 7 -10 3 -15z m1241 -7 c-3 -3 -11 0 -18 7 -9 10 -8
11 6 5 10 -3 15 -9 12 -12z m-37 -9 c-10 -2 -28 -2 -40 0 -13 2 -5 4 17 4 22
1 32 -1 23 -4z m87 -3 c-3 -5 -18 -10 -33 -9 -24 0 -25 1 -7 9 28 12 47 12 40
0z m-1275 -13 c0 -5 -7 -7 -15 -3 -8 3 -15 1 -15 -4 0 -6 -7 -10 -15 -10 -9 0
-12 6 -9 15 6 15 54 17 54 2z m880 -7 c0 -11 -4 -20 -9 -20 -5 0 -7 9 -4 20 3
11 7 20 9 20 2 0 4 -9 4 -20z m430 10 c0 -5 -8 -10 -17 -10 -15 0 -16 2 -3 10
19 12 20 12 20 0z m47 -16 c-3 -3 -12 -4 -19 -1 -8 3 -5 6 6 6 11 1 17 -2 13
-5z m883 -73 c18 -35 11 -71 -19 -102 -34 -33 -52 -36 -76 -12 -36 36 11 133
65 133 11 0 24 -9 30 -19z m-2270 -36 c0 -19 -4 -35 -10 -35 -5 0 -7 -7 -4
-15 13 -33 -33 -9 -52 27 -16 31 -10 54 7 28 7 -13 10 -13 18 -1 7 11 11 10
20 -5 11 -17 12 -16 8 9 -2 15 0 27 4 27 5 0 9 -16 9 -35z m231 -158 c115 -60
200 -86 291 -90 74 -3 99 -10 85 -23 -15 -15 -148 -5 -214 16 -79 25 -245 109
-251 128 -5 17 -3 17 89 -31z m1885 5 c6 -4 19 -23 29 -42 l18 -35 -28 25
c-26 25 -27 25 -40 5 -60 -86 -68 -94 -94 -89 -31 6 -91 -28 -98 -57 -5 -18
-23 -25 -36 -13 -7 7 33 73 81 132 52 64 131 99 168 74z m27 -91 c9 -16 17
-39 17 -50 0 -23 -98 -131 -119 -131 -8 0 -7 5 4 16 30 31 47 64 41 80 -5 14
-10 12 -27 -10 -11 -14 -25 -24 -30 -21 -5 4 -9 -1 -9 -10 0 -9 -6 -15 -12
-12 -7 2 -18 -3 -25 -12 -7 -9 -13 -11 -13 -5 0 7 15 23 34 38 19 14 52 53 72
86 20 33 40 60 43 60 4 0 14 -13 24 -29z m-1768 -41 c3 -5 1 -10 -4 -10 -6 0
-11 5 -11 10 0 6 2 10 4 10 3 0 8 -4 11 -10z m268 -7 c-7 -2 -19 -2 -25 0 -7
3 -2 5 12 5 14 0 19 -2 13 -5z m1342 -33 c-3 -5 -16 -15 -28 -21 -21 -10 -21
-9 2 10 25 23 36 27 26 11z m-86 -104 c-3 -3 -11 5 -18 17 -13 21 -12 21 5 5
10 -10 16 -20 13 -22z m-1024 -166 c3 -5 2 -10 -4 -10 -5 0 -13 5 -16 10 -3 6
-2 10 4 10 5 0 13 -4 16 -10z m-68 -6 c-3 -3 -12 -4 -19 -1 -8 3 -5 6 6 6 11
1 17 -2 13 -5z m163 -134 c0 -5 -2 -10 -4 -10 -3 0 -8 5 -11 10 -3 6 -1 10 4
10 6 0 11 -4 11 -10z m1150 -60 c23 -55 -8 -110 -61 -110 -22 0 -30 5 -35 25
-9 34 2 71 28 95 31 28 54 25 68 -10z m-1127 -17 c-7 -2 -19 -2 -25 0 -7 3 -2
5 12 5 14 0 19 -2 13 -5z m-82 -26 c-10 -9 -11 -8 -5 6 3 10 9 15 12 12 3 -3
0 -11 -7 -18z m-16 -47 c3 -6 -1 -7 -9 -4 -18 7 -21 14 -7 14 6 0 13 -4 16
-10z m80 -20 c3 -5 1 -10 -4 -10 -6 0 -11 5 -11 10 0 6 2 10 4 10 3 0 8 -4 11
-10z m25 -62 c0 -4 -6 -8 -14 -8 -8 0 -17 4 -20 8 -2 4 4 8 15 8 10 0 19 -4
19 -8z m1495 -18 c3 -5 -1 -10 -10 -10 -9 0 -13 5 -10 10 3 6 8 10 10 10 2 0
7 -4 10 -10z m-1730 -10 c3 -6 -1 -7 -9 -4 -18 7 -21 14 -7 14 6 0 13 -4 16
-10z m188 -57 c-7 -2 -21 -2 -30 0 -10 3 -4 5 12 5 17 0 24 -2 18 -5z m162
-53 c3 -5 2 -10 -4 -10 -5 0 -13 5 -16 10 -3 6 -2 10 4 10 5 0 13 -4 16 -10z
m98 3 c-7 -2 -19 -2 -25 0 -7 3 -2 5 12 5 14 0 19 -2 13 -5z m-293 -57 c0 -11
-19 -15 -25 -6 -3 5 1 10 9 10 9 0 16 -2 16 -4z m205 -37 c-4 -5 -13 -9 -22
-9 -13 0 -13 3 -3 15 13 15 35 11 25 -6z m85 -23 c0 -14 -29 -31 -38 -21 -6 6
18 35 29 35 5 0 9 -6 9 -14z m436 2 c4 -6 6 -39 5 -72 -1 -38 2 -56 7 -48 10
15 22 -84 22 -181 0 -32 7 -74 15 -94 20 -47 20 -48 -16 -22 -63 45 -69 65
-69 257 0 143 2 172 14 172 8 0 18 -5 22 -12z m-566 -22 c0 -2 -16 -14 -36
-25 -22 -13 -34 -16 -32 -9 6 18 68 49 68 34z m177 -2 c-3 -3 -12 -4 -19 -1
-8 3 -5 6 6 6 11 1 17 -2 13 -5z m553 -44 c21 -11 41 -24 45 -30 9 -14 -1 -13
-36 6 -17 8 -36 13 -42 11 -12 -4 38 -32 178 -101 71 -34 214 -86 239 -86 21
0 40 -26 26 -35 -14 -9 -128 14 -136 26 -3 5 -14 9 -25 9 -11 0 -39 9 -62 21
-79 39 -182 79 -205 79 -13 0 -21 4 -18 9 6 9 -21 37 -29 30 -4 -5 22 -356 30
-402 7 -43 -17 -29 -33 19 -17 47 -31 203 -32 336 0 89 2 98 22 112 28 20 31
20 78 -4z m-990 0 c0 -5 -2 -10 -4 -10 -3 0 -8 5 -11 10 -3 6 -1 10 4 10 6 0
11 -4 11 -10z m267 4 c-3 -3 -12 -4 -19 -1 -8 3 -5 6 6 6 11 1 17 -2 13 -5z
m121 -1 c-10 -2 -28 -2 -40 0 -13 2 -5 4 17 4 22 1 32 -1 23 -4z m47 -3 c3 -5
-1 -10 -9 -10 -9 0 -16 5 -16 10 0 6 4 10 9 10 6 0 13 -4 16 -10z m85 6 c0 -3
-4 -8 -10 -11 -5 -3 -10 -1 -10 4 0 6 5 11 10 11 6 0 10 -2 10 -4z m-274 -34
c-4 -3 -14 2 -24 12 -16 18 -16 18 6 6 13 -6 21 -14 18 -18z m-163 11 c-7 -2
-19 -2 -25 0 -7 3 -2 5 12 5 14 0 19 -2 13 -5z m107 -2 c0 -12 -20 -25 -27
-18 -7 7 6 27 18 27 5 0 9 -4 9 -9z m198 -62 c-7 -4 -13 -22 -13 -39 0 -31 2
-32 44 -36 40 -4 43 -3 30 13 -8 10 -18 21 -24 25 -19 14 3 19 29 7 16 -8 25
-18 21 -27 -3 -7 3 -21 12 -30 16 -16 16 -16 11 0 -5 12 0 18 19 23 33 8 42
-1 18 -19 -10 -7 -15 -18 -11 -24 11 -18 24 -14 31 9 5 16 9 18 21 8 13 -10
12 -14 -2 -30 -10 -11 -14 -22 -11 -26 4 -3 7 -1 7 5 0 7 9 12 20 12 12 0 20
6 19 13 -5 38 1 48 28 44 15 -2 29 -9 31 -17 3 -9 -2 -11 -21 -6 -14 3 -29 2
-32 -4 -3 -5 3 -10 14 -10 22 0 28 -14 11 -25 -6 -4 -7 -11 -4 -17 4 -7 9 -6
14 3 5 7 23 12 42 12 18 0 38 7 45 16 11 14 12 13 13 -5 0 -12 -7 -24 -15 -28
-8 -3 -15 -13 -15 -21 0 -9 5 -13 11 -9 8 4 9 -1 4 -17 -4 -17 -3 -20 3 -10 7
9 12 10 16 2 4 -6 12 -9 17 -6 5 3 6 -1 3 -9 -3 -8 -13 -12 -22 -10 -13 4 -13
3 2 -6 14 -10 20 -9 28 1 6 10 7 7 3 -9 -6 -21 -4 -23 13 -18 24 8 36 -17 22
-45 -7 -13 -7 -19 0 -19 5 0 10 -5 10 -10 0 -13 -129 -311 -140 -325 -5 -6
-32 -58 -60 -115 -76 -153 -89 -214 -100 -485 -12 -288 -27 -455 -51 -570 -22
-108 -20 -69 7 175 13 111 17 222 16 390 -1 129 3 260 8 291 6 31 11 84 13
117 1 33 5 55 9 48 4 -6 8 -9 9 -6 0 3 2 15 5 28 3 16 -1 22 -14 23 -16 1 -16
2 1 6 21 5 21 7 1 44 -18 36 -22 122 -6 142 9 10 9 16 0 25 -17 17 -25 15 -31
-9 -3 -11 -15 -23 -26 -26 -21 -5 -30 -33 -11 -33 6 0 10 -4 10 -10 0 -14 -11
-12 -35 6 -19 14 -19 15 9 38 21 16 26 25 17 30 -9 6 -7 17 9 42 11 20 20 36
20 37 0 1 -15 2 -33 3 -17 1 -26 -1 -19 -3 17 -6 15 -23 -2 -23 -8 0 -18 9
-21 20 -3 11 -11 20 -16 20 -5 0 -9 5 -9 11 0 6 9 8 20 4 11 -4 20 -2 20 4 0
6 -3 11 -7 11 -5 0 -19 3 -32 7 -20 5 -23 3 -18 -10 4 -11 1 -17 -8 -17 -10 0
-15 10 -15 30 0 21 -5 30 -16 30 -21 0 -12 24 10 28 20 4 56 32 56 44 0 5 -9
8 -20 8 -14 0 -18 -5 -13 -16 5 -14 2 -16 -20 -11 -16 5 -27 3 -30 -6 -2 -7
-8 -8 -13 -3 -5 5 -4 11 4 13 6 3 12 11 12 19 0 9 -5 12 -11 8 -8 -5 -10 3 -7
24 3 20 0 33 -9 36 -7 3 -13 16 -13 30 0 13 -3 31 -6 40 -7 19 -41 21 -47 4
-3 -10 -7 -10 -20 1 -15 12 -17 11 -17 -3 0 -18 35 -22 45 -6 4 6 10 8 15 5 5
-3 3 -23 -6 -45 -9 -23 -13 -51 -10 -65 4 -14 2 -25 -4 -25 -5 0 -10 4 -10 9
0 4 -11 7 -25 6 -14 -2 -25 1 -25 6 0 5 12 9 26 9 14 0 23 4 19 10 -3 6 -17
10 -31 10 -20 0 -24 -5 -24 -27 0 -16 7 -36 14 -46 12 -15 18 -16 35 -7 17 9
21 8 21 -5 0 -16 -1 -17 -42 -19 -15 -1 -25 1 -22 5 2 4 0 10 -6 14 -6 4 -8
11 -5 16 4 5 1 9 -4 9 -6 0 -11 15 -11 34 0 40 -12 52 -30 31 -17 -20 -30 -19
-30 3 0 13 2 14 9 3 7 -11 10 -10 14 5 9 33 7 93 -3 99 -6 3 -10 11 -10 16 0
6 5 7 10 4 6 -3 14 -3 20 0 13 8 -11 45 -30 45 -8 0 -2 7 14 15 29 15 60 10
35 -6 -9 -6 -10 -9 -2 -9 6 0 19 8 29 17 16 16 15 18 -17 30 l-34 13 33 -6
c46 -8 102 4 102 21 0 17 7 18 35 4 19 -9 18 -9 -2 -5 -13 2 -23 1 -23 -3 0
-15 26 -39 44 -43 11 -1 20 -11 22 -21 2 -13 -2 -17 -13 -13 -8 3 -21 6 -29 6
-8 0 -11 6 -8 15 4 8 2 15 -2 15 -5 0 -20 3 -34 7 l-25 6 28 -27 c15 -14 41
-33 58 -41 16 -9 29 -19 29 -24 0 -5 9 -11 21 -14 20 -5 20 -5 3 14 -17 18
-16 19 22 19 l39 0 -31 16 c-25 12 -30 20 -26 40 4 20 1 24 -22 24 -14 0 -26
5 -26 11 0 5 5 7 10 4 6 -3 10 -1 10 5 0 6 5 8 10 5 6 -3 10 4 10 15 0 16 -5
20 -15 16 -11 -4 -15 2 -15 20 l0 25 40 -32 c28 -23 37 -35 28 -40z m157 41
c4 -6 1 -9 -7 -8 -7 2 -12 -3 -10 -9 1 -7 -2 -13 -8 -13 -5 0 -10 9 -10 20 0
21 24 28 35 10z m-531 -8 c3 -5 -1 -9 -9 -9 -8 0 -15 4 -15 9 0 4 4 8 9 8 6 0
12 -4 15 -8z m126 -12 c8 -5 11 -12 7 -16 -3 -4 -13 -2 -20 4 -8 7 -16 9 -19
6 -3 -3 -9 -1 -13 5 -8 13 24 14 45 1z m76 -13 c1 -9 -3 -17 -10 -17 -18 0
-25 10 -19 26 7 19 26 13 29 -9z m234 3 c13 -9 13 -10 0 -10 -8 0 -22 5 -30
10 -13 9 -13 10 0 10 8 0 22 -5 30 -10z m60 -14 c0 -2 -7 -6 -15 -10 -8 -3
-15 -1 -15 4 0 6 7 10 15 10 8 0 15 -2 15 -4z m155 -17 c5 -5 -7 -9 -32 -9
-23 0 -44 5 -47 13 -5 10 -7 10 -12 0 -3 -7 -13 -13 -22 -13 -13 0 -12 3 4 15
20 16 90 12 109 -6z m105 11 c0 -5 -6 -9 -12 -7 -9 1 -12 -11 -10 -42 3 -30 0
-41 -7 -37 -6 4 -11 1 -11 -6 0 -9 -3 -9 -10 2 -6 10 -5 17 5 23 20 11 19 37
0 37 -8 0 -15 -7 -15 -16 0 -12 -6 -15 -22 -10 -13 3 -26 6 -30 6 -5 0 -8 5
-8 10 0 6 6 10 13 8 27 -5 69 13 63 27 -4 11 2 15 19 15 14 0 25 -4 25 -10z
m-705 -38 c-3 -3 -11 0 -18 7 -9 10 -8 11 6 5 10 -3 15 -9 12 -12z m345 8 c0
-5 -2 -10 -4 -10 -3 0 -8 5 -11 10 -3 6 -1 10 4 10 6 0 11 -4 11 -10z m230
-10 c0 -5 -4 -10 -10 -10 -5 0 -10 5 -10 10 0 6 5 10 10 10 6 0 10 -4 10 -10z
m-50 -10 c0 -5 -4 -10 -10 -10 -5 0 -10 5 -10 10 0 6 5 10 10 10 6 0 10 -4 10
-10z m740 -10 c41 -12 83 -23 93 -26 9 -3 17 -12 17 -20 0 -13 -4 -13 -27 0
-16 7 -61 23 -102 34 -40 12 -76 24 -79 27 -10 10 24 5 98 -15z m-274 -15 c18
-14 18 -14 -8 -15 -18 0 -28 5 -28 15 0 19 11 19 36 0z m-289 -57 c-2 -13 -4
-5 -4 17 -1 22 1 32 4 23 2 -10 2 -28 0 -40z m1333 48 c0 -2 -7 -6 -15 -10 -8
-3 -15 -1 -15 4 0 6 7 10 15 10 8 0 15 -2 15 -4z m-1089 -53 c-8 -15 -10 -15
-11 -2 0 17 10 32 18 25 2 -3 -1 -13 -7 -23z m686 -5 c-17 -69 -25 -91 -27
-78 -2 8 -6 -1 -10 -20 -7 -34 -7 -34 -9 12 0 26 -5 49 -10 53 -19 11 -26 -26
-19 -107 3 -46 6 -108 7 -138 0 -93 -19 -22 -31 116 -10 119 -10 122 13 153
18 24 30 31 57 31 31 0 34 -2 29 -22z m-1617 8 c0 -3 -4 -8 -10 -11 -5 -3 -10
-1 -10 4 0 6 5 11 10 11 6 0 10 -2 10 -4z m1489 -5 c7 -5 9 -11 5 -13 -15 -8
-104 3 -104 13 0 11 81 12 99 0z m-799 -42 c0 -18 -18 -9 -23 12 -4 16 -3 18
9 8 8 -6 14 -15 14 -20z m320 -18 c-1 -13 -4 -12 -15 3 -8 11 -15 27 -15 35 1
13 4 12 15 -3 8 -11 15 -27 15 -35z m-1010 29 c0 -5 -7 -10 -16 -10 -8 0 -12
5 -9 10 3 6 10 10 16 10 5 0 9 -4 9 -10z m1756 1 c-4 -5 -27 -9 -52 -9 -28 1
-40 4 -32 9 18 12 91 11 84 0z m-824 -41 c2 -17 10 -26 26 -28 32 -5 27 -22
-7 -22 -23 0 -31 -5 -34 -22 -2 -13 -5 8 -6 47 0 42 3 65 8 60 5 -6 11 -21 13
-35z m871 33 c-7 -2 -19 -2 -25 0 -7 3 -2 5 12 5 14 0 19 -2 13 -5z m-647 -51
c-17 -16 -18 -16 -5 5 7 12 15 20 18 17 3 -2 -3 -12 -13 -22z m-1192 -13 c-6
-11 -24 -2 -24 11 0 5 7 7 15 4 8 -4 12 -10 9 -15z m3300 -81 c2 -73 7 -102
24 -135 23 -45 108 -160 154 -209 15 -17 25 -34 21 -38 -5 -4 -1 -7 7 -6 8 1
22 2 30 1 12 -1 12 -3 -2 -12 -19 -11 -68 -2 -68 12 0 5 -7 9 -15 9 -8 0 -15
5 -15 11 0 6 -9 8 -20 4 -12 -4 -20 -2 -20 5 0 6 5 8 13 4 9 -6 8 -3 -1 8 -8
9 -19 15 -26 12 -16 -6 -108 95 -134 148 -14 28 -21 36 -21 23 -1 -56 111
-210 195 -267 36 -25 43 -38 19 -38 -8 0 -15 5 -15 11 0 5 -4 8 -9 5 -4 -3
-18 2 -29 12 -43 36 -58 48 -87 66 -40 26 -47 34 -79 85 -15 23 -29 41 -31 39
-19 -19 104 -204 129 -195 7 3 27 -7 45 -22 27 -22 31 -29 18 -34 -11 -4 -14
-2 -10 9 3 7 1 14 -5 14 -6 0 -12 -6 -15 -12 -2 -8 -33 16 -74 57 -94 94 -136
181 -136 281 0 79 28 155 65 175 20 11 21 9 15 -20 -10 -48 0 -37 33 36 17 36
33 63 36 60 3 -3 7 -48 8 -99z m-2194 83 c0 -6 -4 -13 -10 -16 -5 -3 -10 1
-10 9 0 9 5 16 10 16 6 0 10 -4 10 -9z m247 -13 c-3 -8 -6 -5 -6 6 -1 11 2 17
5 13 3 -3 4 -12 1 -19z m-1307 -28 c0 -5 -4 -10 -10 -10 -5 0 -10 5 -10 10 0
6 5 10 10 10 6 0 10 -4 10 -10z m2180 1 c0 -6 -4 -13 -10 -16 -5 -3 -10 1 -10
9 0 9 5 16 10 16 6 0 10 -4 10 -9z m117 -27 c-7 -44 -29 -79 -59 -95 -20 -11
-20 -9 5 20 15 18 30 50 33 72 4 21 11 39 17 39 6 0 7 -15 4 -36z m-59 -1 c-3
-19 -48 -32 -48 -14 0 6 7 11 15 11 8 0 15 5 15 10 0 6 5 10 11 10 6 0 9 -8 7
-17z m-2123 -3 c3 -5 2 -10 -4 -10 -5 0 -13 5 -16 10 -3 6 -2 10 4 10 5 0 13
-4 16 -10z m1320 -10 c3 -6 -1 -7 -9 -4 -18 7 -21 14 -7 14 6 0 13 -4 16 -10z
m960 -27 c-9 -21 -23 -45 -31 -53 -8 -8 -3 9 12 38 30 60 41 69 19 15z m914
-36 c22 -38 38 -73 35 -78 -3 -5 0 -8 8 -7 8 2 12 -4 10 -16 -2 -12 1 -16 9
-10 8 4 10 3 5 -4 -9 -16 17 -56 83 -126 38 -40 46 -52 26 -38 -40 27 -144
143 -171 190 -21 37 -36 80 -49 137 -8 37 -7 36 44 -48z m-2269 42 c0 -5 -4
-9 -10 -9 -5 0 -10 7 -10 16 0 8 5 12 10 9 6 -3 10 -10 10 -16z m-92 -102 c15
-16 57 -44 95 -63 37 -19 67 -36 67 -39 0 -11 -97 31 -132 59 -60 45 -78 75
-70 111 l7 30 3 -35 c2 -21 14 -47 30 -63z m220 67 c12 -8 22 -21 21 -27 0 -9
-2 -8 -6 1 -2 6 -8 10 -13 7 -4 -2 -15 4 -25 15 -22 24 -8 26 23 4z m-173 -24
c3 -5 1 -10 -4 -10 -6 0 -11 5 -11 10 0 6 2 10 4 10 3 0 8 -4 11 -10z m-55
-109 c-1 -3 -9 5 -20 18 -11 12 -17 27 -14 33 5 8 34 -35 34 -51z m607 -8 c-3
-10 -5 -4 -5 12 0 17 2 24 5 18 2 -7 2 -21 0 -30z m-1211 -20 c10 -10 12 -19
6 -21 -16 -5 -53 18 -47 29 9 13 21 11 41 -8z m1007 -63 c3 -11 1 -20 -4 -20
-5 0 -9 9 -9 20 0 11 2 20 4 20 2 0 6 -9 9 -20z m-985 -58 c2 -7 -2 -10 -12
-6 -9 3 -16 11 -16 16 0 13 23 5 28 -10z m3225 -53 c-8 -8 -16 -8 -30 0 -16 9
-14 10 12 11 21 0 26 -3 18 -11z m-27 -47 c-7 -7 -46 9 -46 18 0 5 11 4 25 -2
14 -6 23 -13 21 -16z m38 -29 c3 -7 12 -13 21 -13 8 0 15 -4 15 -10 0 -20 -66
-11 -88 13 l-21 22 34 1 c20 0 36 -5 39 -13z m-159 -13 c-3 -5 2 -10 11 -10
10 0 15 -3 11 -6 -3 -3 -15 -3 -28 1 -17 6 -19 9 -8 16 18 11 22 11 14 -1z
m25 -80 c-6 -4 -23 -5 -38 -2 l-27 6 25 6 c30 8 58 1 40 -10z m-3080 0 c0 -5
-7 -10 -16 -10 -8 0 -12 5 -9 10 3 6 10 10 16 10 5 0 9 -4 9 -10z m3070 -20
c13 -8 13 -10 -2 -10 -9 0 -20 5 -23 10 -8 13 5 13 25 0z m341 -14 c-7 -8 -34
-17 -62 -21 -27 -4 -46 -11 -43 -16 3 -5 0 -9 -5 -9 -6 0 -11 6 -11 14 0 16
30 26 77 26 17 0 35 5 38 10 3 6 9 10 12 10 3 0 0 -6 -6 -14z m-1371 -75 c-43
-84 -45 -101 -12 -166 17 -35 14 -33 -27 19 -17 21 -31 47 -31 56 0 17 94 170
105 170 3 0 -13 -36 -35 -79z m1154 41 c3 -5 -8 -6 -25 -4 -16 2 -29 6 -29 8
0 8 49 4 54 -4z m86 -8 c0 -2 -12 -4 -27 -4 -21 0 -24 3 -14 9 13 8 41 5 41
-5z m-898 -24 c4 -31 1 -34 -34 -35 -25 -1 -38 3 -38 11 0 25 68 48 72 24z
m-2885 -341 c7 -19 12 -26 12 -16 1 10 8 20 16 23 8 4 15 14 15 23 0 10 3 12
8 5 4 -6 15 -14 25 -17 11 -4 21 -16 24 -27 3 -11 9 -17 14 -14 12 7 7 -19 -6
-29 -7 -6 -6 -10 2 -13 8 -4 5 -12 -8 -25 -11 -11 -18 -27 -15 -35 5 -13 1
-15 -21 -13 -5 0 -7 7 -5 15 4 20 -15 18 -27 -3 -9 -16 -10 -16 -11 5 0 13 -6
22 -16 22 -8 0 -12 -4 -9 -10 4 -6 -7 -10 -25 -10 -23 0 -35 7 -50 32 -13 22
-16 34 -8 39 6 4 8 12 4 17 -8 13 44 73 59 69 6 -2 15 -19 22 -38z m-677 -113
c0 -8 -5 -18 -11 -22 -14 -8 -33 11 -25 25 10 16 36 13 36 -3z m1128 -288 c6
-1 12 -7 12 -14 0 -9 -11 -9 -52 1 -29 8 -64 16 -78 19 -20 4 49 0 118 -6z
m4277 -58 c-3 -5 -11 -10 -16 -10 -6 0 -7 5 -4 10 3 6 11 10 16 10 6 0 7 -4 4
-10z m-684 -196 c14 -7 32 -20 40 -30 13 -16 9 -17 -67 -12 -90 7 -124 19
-124 47 0 17 6 19 63 14 34 -3 74 -12 88 -19z m-3641 -88 c0 -2 -7 -7 -16 -10
-8 -3 -12 -2 -9 4 6 10 25 14 25 6z m3874 -73 c48 -31 38 -39 -54 -48 -36 -3
-86 -8 -111 -11 -43 -5 -49 -3 -78 28 -37 39 -38 46 -8 41 12 -2 51 0 87 5
109 14 123 12 164 -15z m1999 -163 c-9 -11 -19 -17 -21 -15 -6 6 18 35 29 35
5 0 1 -9 -8 -20z m-127 -125 c-11 -8 -22 -12 -25 -9 -6 6 19 24 34 24 6 -1 1
-7 -9 -15z m-1445 -21 c21 -25 -9 -40 -104 -54 -125 -17 -333 -17 -322 0 4 6
10 8 15 5 17 -10 59 6 53 21 -3 8 -12 14 -20 14 -8 0 -11 -5 -7 -11 5 -8 -1
-10 -19 -5 -16 4 -27 2 -29 -6 -3 -8 -6 -7 -10 3 -8 20 -17 19 204 28 103 4
191 10 194 14 12 12 31 8 45 -9z m1199 -14 c0 -5 -4 -10 -10 -10 -5 0 -10 5
-10 10 0 6 5 10 10 10 6 0 10 -4 10 -10z m55 -10 c19 -8 19 -9 -2 -9 -12 -1
-25 4 -28 9 -7 12 2 12 30 0z m55 -10 c-20 -13 -33 -13 -25 0 3 6 14 10 23 10
15 0 15 -2 2 -10z m-385 -40 c3 -5 1 -10 -4 -10 -6 0 -11 5 -11 10 0 6 2 10 4
10 3 0 8 -4 11 -10z"/>
<path d="M3200 8799 c0 -45 12 -69 36 -75 13 -3 24 -12 24 -19 0 -23 17 -26
23 -4 3 12 3 18 0 15 -7 -7 -38 33 -47 62 -9 28 5 29 22 2 15 -25 32 -18 25
10 -3 13 -14 20 -28 20 -13 0 -30 3 -39 6 -12 5 -16 0 -16 -17z"/>
<path d="M3307 8763 c-10 -9 -9 -23 2 -23 5 0 11 7 15 15 5 15 -5 20 -17 8z"/>
<path d="M3160 8660 c0 -5 4 -10 9 -10 6 0 13 5 16 10 3 6 -1 10 -9 10 -9 0
-16 -4 -16 -10z"/>
<path d="M3215 8650 c-3 -5 1 -10 9 -10 9 0 16 5 16 10 0 6 -4 10 -9 10 -6 0
-13 -4 -16 -10z"/>
<path d="M3120 8620 c0 -11 2 -20 4 -20 2 0 6 9 9 20 3 11 1 20 -4 20 -5 0 -9
-9 -9 -20z"/>
<path d="M3173 8633 c-14 -5 -18 -33 -5 -33 4 0 13 9 20 20 12 20 8 23 -15 13z"/>
<path d="M3380 8626 c0 -8 9 -18 21 -21 31 -10 33 0 4 19 -21 14 -25 14 -25 2z"/>
<path d="M3266 8556 c3 -8 12 -12 20 -9 21 8 17 23 -6 23 -13 0 -18 -5 -14
-14z"/>
<path d="M3630 8590 c0 -5 7 -10 15 -10 8 0 15 5 15 10 0 6 -7 10 -15 10 -8 0
-15 -4 -15 -10z"/>
<path d="M3165 6030 c5 -14 2 -20 -9 -20 -9 0 -16 -9 -16 -21 0 -18 3 -16 30
12 30 33 31 49 4 49 -11 0 -13 -6 -9 -20z"/>
<path d="M2756 5274 c-10 -25 1 -29 14 -5 6 12 7 21 1 21 -5 0 -12 -7 -15 -16z"/>
<path d="M1050 4804 c0 -17 28 -49 36 -41 4 4 -2 17 -14 30 -12 12 -22 17 -22
11z"/>
<path d="M2562 4633 c2 -9 9 -18 16 -21 18 -6 15 25 -4 32 -11 4 -14 1 -12
-11z"/>
<path d="M660 4581 c0 -6 4 -13 10 -16 6 -3 7 1 4 9 -7 18 -14 21 -14 7z"/>
<path d="M430 4560 c-9 -6 -10 -10 -3 -10 6 0 15 5 18 10 8 12 4 12 -15 0z"/>
<path d="M406 4477 c3 -10 9 -15 12 -12 3 3 0 11 -7 18 -10 9 -11 8 -5 -6z"/>
<path d="M1831 4221 c-8 -6 -9 -11 -3 -15 6 -3 14 -1 17 5 9 14 2 20 -14 10z"/>
<path d="M1868 4213 c7 -3 16 -2 19 1 4 3 -2 6 -13 5 -11 0 -14 -3 -6 -6z"/>
<path d="M1785 4160 c-3 -5 -1 -10 4 -10 6 0 11 5 11 10 0 6 -2 10 -4 10 -3 0
-8 -4 -11 -10z"/>
<path d="M1217 3983 c17 -52 51 -100 38 -53 -10 36 -36 89 -46 95 -4 3 -1 -16
8 -42z"/>
<path d="M1194 3863 c-24 -84 -50 -130 -105 -186 -27 -27 -49 -47 -49 -43 0 3
-23 -9 -51 -29 -28 -19 -59 -35 -70 -35 -10 0 -20 -4 -24 -10 -3 -5 -12 -7
-20 -3 -24 9 -17 -17 10 -39 14 -11 25 -26 25 -34 0 -12 16 -43 37 -73 3 -4
102 58 121 76 7 7 21 13 29 13 9 0 13 3 10 7 -4 3 2 13 13 20 24 17 90 104
115 153 24 46 45 126 45 173 0 60 -17 43 -24 -25 -7 -70 -56 -176 -106 -231
-17 -19 -53 -46 -80 -61 -48 -26 -50 -26 -50 -7 0 12 -8 21 -22 24 l-23 4 23
2 c13 0 20 6 17 11 -9 15 24 25 38 11 6 -6 18 -11 26 -11 11 0 10 5 -5 21 -19
22 -19 22 6 14 22 -7 23 -6 11 9 -16 19 -1 22 19 4 12 -11 12 -10 1 4 -10 14
-10 21 3 39 l15 23 10 -25 c6 -15 10 -18 10 -8 1 9 8 22 16 29 11 9 13 15 5
20 -8 5 -4 24 14 63 25 52 47 157 33 157 -4 0 -14 -26 -23 -57z m-34 -173 c0
-5 -4 -10 -10 -10 -5 0 -10 5 -10 10 0 6 5 10 10 10 6 0 10 -4 10 -10z m-153
-196 c-3 -3 -12 -4 -19 -1 -8 3 -5 6 6 6 11 1 17 -2 13 -5z"/>
<path d="M1290 3870 c0 -5 7 -10 16 -10 8 0 12 5 9 10 -3 6 -10 10 -16 10 -5
0 -9 -4 -9 -10z"/>
<path d="M1073 3755 c-9 -24 1 -27 15 -5 8 13 8 20 2 20 -6 0 -13 -7 -17 -15z"/>
<path d="M1276 3727 c3 -10 9 -15 12 -12 3 3 0 11 -7 18 -10 9 -11 8 -5 -6z"/>
<path d="M1030 3549 c0 -5 5 -7 10 -4 6 3 10 8 10 11 0 2 -4 4 -10 4 -5 0 -10
-5 -10 -11z"/>
<path d="M2410 3940 c0 -5 9 -10 20 -10 11 0 20 5 20 10 0 6 -9 10 -20 10 -11
0 -20 -4 -20 -10z"/>
<path d="M2264 3066 c-8 -22 3 -33 18 -18 9 9 9 15 0 24 -9 9 -13 7 -18 -6z"/>
<path d="M1208 2479 c-31 -17 -20 -28 27 -26 25 1 45 5 45 10 0 4 -5 7 -11 7
-5 0 -7 5 -4 10 8 13 -35 12 -57 -1z"/>
<path d="M1462 2449 c4 -30 58 -48 58 -19 0 10 -8 20 -17 24 -10 3 -24 9 -31
12 -10 4 -13 0 -10 -17z"/>
<path d="M1180 2430 c-8 -5 -11 -12 -7 -16 4 -4 13 -2 19 4 6 6 10 14 7 16 -2
3 -11 1 -19 -4z"/>
<path d="M1280 2426 c0 -9 7 -16 16 -16 9 0 14 5 12 12 -6 18 -28 21 -28 4z"/>
<path d="M1700 2400 c-12 -8 -12 -10 3 -16 21 -8 35 2 21 16 -5 5 -15 6 -24 0z"/>
<path d="M1337 2380 c-3 -11 -1 -22 3 -25 5 -3 10 3 12 12 3 16 5 16 24 -2 20
-20 59 -45 69 -45 2 0 2 6 -1 14 -3 8 0 16 8 19 7 2 6 3 -3 2 -9 -1 -23 1 -30
5 -10 7 -10 11 0 24 11 13 11 16 -2 16 -8 0 -17 -6 -20 -12 -4 -10 -7 -10 -18
0 -19 18 -36 15 -42 -8z"/>
<path d="M1164 2377 c3 -10 6 -21 6 -23 0 -2 10 -4 21 -4 16 0 20 -5 16 -20
-4 -16 0 -20 19 -20 19 0 24 5 23 23 -1 16 -2 18 -6 5 -7 -26 -16 -22 -31 12
-8 17 -18 27 -24 24 -6 -4 -15 0 -20 7 -8 11 -8 10 -4 -4z"/>
<path d="M1550 2379 c0 -5 5 -7 10 -4 6 3 10 8 10 11 0 2 -4 4 -10 4 -5 0 -10
-5 -10 -11z"/>
<path d="M1585 2381 c-3 -5 2 -11 10 -15 8 -3 17 -1 20 3 3 5 -2 11 -10 15 -8
3 -17 1 -20 -3z"/>
<path d="M1510 2359 c0 -5 5 -7 10 -4 6 3 10 8 10 11 0 2 -4 4 -10 4 -5 0 -10
-5 -10 -11z"/>
<path d="M1670 2350 c0 -5 4 -10 9 -10 6 0 13 5 16 10 3 6 -1 10 -9 10 -9 0
-16 -4 -16 -10z"/>
<path d="M1321 2334 c0 -11 3 -14 6 -6 3 7 2 16 -1 19 -3 4 -6 -2 -5 -13z"/>
<path d="M1535 2330 c-3 -5 -1 -10 4 -10 6 0 11 5 11 10 0 6 -2 10 -4 10 -3 0
-8 -4 -11 -10z"/>
<path d="M1380 2320 c0 -5 5 -10 11 -10 5 0 7 5 4 10 -3 6 -8 10 -11 10 -2 0
-4 -4 -4 -10z"/>
<path d="M1490 2319 c0 -5 5 -7 10 -4 6 3 10 8 10 11 0 2 -4 4 -10 4 -5 0 -10
-5 -10 -11z"/>
<path d="M1581 2303 c-7 -8 -10 -17 -7 -20 9 -9 29 13 25 25 -2 6 -10 3 -18
-5z"/>
<path d="M1395 2280 c3 -5 12 -10 20 -10 8 0 17 5 20 10 4 6 -5 10 -20 10 -15
0 -24 -4 -20 -10z"/>
<path d="M1490 2270 c0 -5 5 -10 10 -10 6 0 10 5 10 10 0 6 -4 10 -10 10 -5 0
-10 -4 -10 -10z"/>
<path d="M1445 2240 c-3 -5 -2 -10 4 -10 5 0 13 5 16 10 3 6 2 10 -4 10 -5 0
-13 -4 -16 -10z"/>
<path d="M1474 2203 c-3 -16 -8 -35 -10 -43 -4 -10 -2 -12 4 -5 11 12 26 75
18 75 -3 0 -8 -12 -12 -27z"/>
<path d="M1426 2212 c-3 -5 1 -15 9 -22 16 -14 20 -3 6 19 -5 8 -11 9 -15 3z"/>
<path d="M1500 2175 c0 -5 5 -17 10 -25 5 -8 10 -10 10 -5 0 6 -5 17 -10 25
-5 8 -10 11 -10 5z"/>
<path d="M1394 2163 c3 -4 17 -8 29 -10 17 -2 19 -1 7 7 -17 11 -47 14 -36 3z"/>
<path d="M1480 2120 c0 -5 5 -10 10 -10 6 0 10 5 10 10 0 6 -4 10 -10 10 -5 0
-10 -4 -10 -10z"/>
<path d="M4400 1771 c0 -10 19 -25 25 -20 1 2 -3 10 -11 17 -8 7 -14 8 -14 3z"/>
<path d="M1005 1160 c-3 -5 -1 -10 4 -10 6 0 11 5 11 10 0 6 -2 10 -4 10 -3 0
-8 -4 -11 -10z"/>
<path d="M5369 81 c12 -8 51 -4 51 5 0 2 -15 4 -32 4 -23 0 -29 -3 -19 -9z"/>
<path d="M2136 8543 c-6 -14 -5 -15 5 -6 7 7 10 15 7 18 -3 3 -9 -2 -12 -12z"/>
<path d="M2900 8006 c0 -2 7 -6 15 -10 8 -3 15 -1 15 4 0 6 -7 10 -15 10 -8 0
-15 -2 -15 -4z"/>
<path d="M3085 7970 c-3 -5 1 -10 10 -10 9 0 13 5 10 10 -3 6 -8 10 -10 10 -2
0 -7 -4 -10 -10z"/>
<path d="M4990 7853 c0 -9 40 -36 45 -31 2 2 -8 11 -21 21 -13 10 -24 14 -24
10z"/>
<path d="M2270 7688 c-12 -22 -12 -22 6 -6 10 10 15 20 12 24 -4 3 -12 -5 -18
-18z"/>
<path d="M4868 7583 c6 -2 18 -2 25 0 6 3 1 5 -13 5 -14 0 -19 -2 -12 -5z"/>
<path d="M3018 7473 c7 -3 16 -2 19 1 4 3 -2 6 -13 5 -11 0 -14 -3 -6 -6z"/>
<path d="M2940 7450 c30 -23 40 -25 40 -6 0 15 -21 26 -48 26 -13 0 -11 -5 8
-20z"/>
<path d="M3560 7410 c20 -13 33 -13 25 0 -3 6 -14 10 -23 10 -15 0 -15 -2 -2
-10z"/>
<path d="M3533 7383 c9 -2 23 -2 30 0 6 3 -1 5 -18 5 -16 0 -22 -2 -12 -5z"/>
<path d="M2985 7360 c-8 -12 4 -17 55 -25 25 -4 52 -13 61 -21 18 -16 45 -18
54 -4 3 5 -11 18 -32 27 -21 10 -40 20 -43 23 -9 9 -90 8 -95 0z"/>
<path d="M3600 7360 c0 -5 5 -10 11 -10 5 0 7 5 4 10 -3 6 -8 10 -11 10 -2 0
-4 -4 -4 -10z"/>
<path d="M3152 7346 c16 -8 34 -18 40 -21 7 -4 2 3 -12 14 -14 11 -32 21 -40
21 -8 0 -3 -7 12 -14z"/>
<path d="M3490 7350 c0 -5 5 -10 10 -10 6 0 10 5 10 10 0 6 -4 10 -10 10 -5 0
-10 -4 -10 -10z"/>
<path d="M3785 7350 c-3 -6 1 -7 9 -4 18 7 21 14 7 14 -6 0 -13 -4 -16 -10z"/>
<path d="M6670 7349 c0 -5 5 -7 10 -4 6 3 10 8 10 11 0 2 -4 4 -10 4 -5 0 -10
-5 -10 -11z"/>
<path d="M3058 7293 c6 -2 18 -2 25 0 6 3 1 5 -13 5 -14 0 -19 -2 -12 -5z"/>
<path d="M2965 7280 c3 -5 11 -10 16 -10 6 0 7 5 4 10 -3 6 -11 10 -16 10 -6
0 -7 -4 -4 -10z"/>
<path d="M3780 7279 c0 -5 5 -7 10 -4 6 3 10 8 10 11 0 2 -4 4 -10 4 -5 0 -10
-5 -10 -11z"/>
<path d="M4771 7233 c22 -35 45 -65 50 -68 13 -9 -32 62 -64 98 -18 21 -13 10
14 -30z"/>
<path d="M3601 7254 c0 -11 3 -14 6 -6 3 7 2 16 -1 19 -3 4 -6 -2 -5 -13z"/>
<path d="M3736 7259 c2 -4 -6 -15 -18 -23 -12 -9 -17 -16 -11 -16 7 0 24 10
38 23 25 21 25 23 7 23 -11 0 -19 -4 -16 -7z"/>
<path d="M4503 7221 c-10 -16 -9 -22 3 -32 12 -10 13 -9 9 4 -4 8 -2 18 4 22
13 7 15 25 3 25 -4 0 -13 -9 -19 -19z"/>
<path d="M4525 7211 c-3 -6 3 -9 14 -8 11 0 17 5 15 9 -7 11 -22 10 -29 -1z"/>
<path d="M3118 7193 c7 -3 16 -2 19 1 4 3 -2 6 -13 5 -11 0 -14 -3 -6 -6z"/>
<path d="M3171 7184 c0 -11 3 -14 6 -6 3 7 2 16 -1 19 -3 4 -6 -2 -5 -13z"/>
<path d="M2402 7150 c0 -19 2 -27 5 -17 2 9 2 25 0 35 -3 9 -5 1 -5 -18z"/>
<path d="M3595 7150 c-3 -5 -1 -10 4 -10 6 0 11 5 11 10 0 6 -2 10 -4 10 -3 0
-8 -4 -11 -10z"/>
<path d="M2411 7072 c-2 -66 -40 -112 -117 -142 l-49 -19 116 -1 c75 0 119 -4
127 -12 27 -27 19 1 -15 49 -19 28 -41 75 -48 105 -11 45 -13 48 -14 20z"/>
<path d="M4691 7044 c0 -11 3 -14 6 -6 3 7 2 16 -1 19 -3 4 -6 -2 -5 -13z"/>
<path d="M3325 7010 c-3 -5 -2 -10 4 -10 5 0 13 5 16 10 3 6 2 10 -4 10 -5 0
-13 -4 -16 -10z"/>
<path d="M4703 6960 c0 -30 2 -43 4 -27 2 15 2 39 0 55 -2 15 -4 2 -4 -28z"/>
<path d="M2685 6887 c-5 -47 -3 -100 3 -132 11 -56 51 -149 60 -141 3 3 0 11
-6 18 -18 23 -52 149 -52 193 0 72 1 73 83 59 40 -6 81 -15 92 -19 16 -5 17
-5 5 4 -8 6 -45 20 -81 31 -43 13 -72 28 -82 43 -14 21 -15 18 -22 -56z"/>
<path d="M4649 6834 c-22 -25 -22 -26 -3 -16 12 6 24 18 28 27 8 21 3 19 -25
-11z"/>
<path d="M2491 6754 c0 -11 3 -14 6 -6 3 7 2 16 -1 19 -3 4 -6 -2 -5 -13z"/>
<path d="M2556 6628 c10 -14 21 -24 23 -22 3 3 -6 15 -18 27 l-24 22 19 -27z"/>
<path d="M2590 6596 c0 -2 7 -9 15 -16 9 -7 15 -8 15 -2 0 5 -7 12 -15 16 -8
3 -15 4 -15 2z"/>
<path d="M2630 6566 c0 -7 90 -59 95 -54 2 2 -18 16 -46 31 -27 16 -49 26 -49
23z"/>
<path d="M2801 6476 c2 -2 20 -6 39 -10 25 -4 31 -3 20 4 -14 9 -69 15 -59 6z"/>
<path d="M1590 5550 c0 -5 5 -10 11 -10 5 0 7 5 4 10 -3 6 -8 10 -11 10 -2 0
-4 -4 -4 -10z"/>
<path d="M2175 5150 c-3 -5 -2 -10 4 -10 5 0 13 5 16 10 3 6 2 10 -4 10 -5 0
-13 -4 -16 -10z"/>
<path d="M6180 4946 c0 -3 9 -10 20 -16 11 -6 20 -8 20 -6 0 3 -9 10 -20 16
-11 6 -20 8 -20 6z"/>
<path d="M7341 414 c0 -11 3 -14 6 -6 3 7 2 16 -1 19 -3 4 -6 -2 -5 -13z"/>
<path d="M7170 249 c0 -5 5 -7 10 -4 6 3 10 8 10 11 0 2 -4 4 -10 4 -5 0 -10
-5 -10 -11z"/>
<path d="M7113 226 c14 -14 21 -16 30 -7 8 8 8 11 0 11 -6 0 -20 3 -30 7 -17
7 -17 6 0 -11z"/>
<path d="M15 190 c11 -5 29 -8 40 -8 16 0 15 2 -5 8 -34 11 -60 11 -35 0z"/>
<path d="M7090 190 c0 -5 5 -10 10 -10 6 0 10 5 10 10 0 6 -4 10 -10 10 -5 0
-10 -4 -10 -10z"/>
<path d="M6578 183 c6 -2 18 -2 25 0 6 3 1 5 -13 5 -14 0 -19 -2 -12 -5z"/>
<path d="M7055 170 c-3 -5 1 -13 10 -16 22 -9 29 1 11 15 -10 8 -16 9 -21 1z"/>
<path d="M0 85 l0 -85 134 1 c117 0 136 3 151 19 16 17 15 20 -4 39 -12 12
-28 21 -36 21 -8 0 -15 5 -15 11 0 7 -11 8 -30 4 -19 -4 -30 -3 -30 5 0 7 -6
8 -19 1 -16 -9 -23 -4 -46 30 -18 25 -31 36 -35 28 -6 -8 -13 -8 -28 0 -38 20
-42 14 -42 -74z m85 55 c3 -5 1 -10 -4 -10 -6 0 -11 5 -11 10 0 6 2 10 4 10 3
0 8 -4 11 -10z m145 -79 c0 -5 9 -7 20 -4 19 5 28 -11 12 -21 -15 -9 -52 6
-52 20 0 8 5 14 10 14 6 0 10 -4 10 -9z"/>
<path d="M6793 116 c-10 -11 -9 -15 2 -20 10 -4 15 1 15 14 0 23 -1 24 -17 6z"/>
<path d="M6630 91 c-7 -15 -7 -21 0 -21 12 0 25 28 17 36 -3 3 -10 -4 -17 -15z"/>
<path d="M370 76 c0 -9 5 -16 10 -16 6 0 10 4 10 9 0 6 -4 13 -10 16 -5 3 -10
-1 -10 -9z"/>
<path d="M6758 83 c7 -3 16 -2 19 1 4 3 -2 6 -13 5 -11 0 -14 -3 -6 -6z"/>
<path d="M421 64 c0 -11 3 -14 6 -6 3 7 2 16 -1 19 -3 4 -6 -2 -5 -13z"/>
<path d="M336 51 c-4 -7 -5 -15 -2 -18 9 -9 19 4 14 18 -4 11 -6 11 -12 0z"/>
<path d="M446 31 c-7 -10 22 -37 30 -28 4 3 -1 13 -9 22 -9 8 -18 11 -21 6z"/>
<path d="M375 19 c-11 -17 -2 -18 19 -3 17 12 17 14 4 14 -9 0 -20 -5 -23 -11z"/>
</g>
</svg>
